<mxfile host="app.diagrams.net" modified="2023-07-13T10:45:50.311Z" agent="Mozilla/5.0 (Macintosh; Intel Mac OS X 10_15_7) AppleWebKit/537.36 (KHTML, like Gecko) Chrome/114.0.0.0 Safari/537.36" etag="-2FVldLZEY528CbJI5Kc" version="21.6.2" type="device" pages="8">
  <diagram name="Page-1" id="x32tk84YgTVvx3ZuzxzF">
    <mxGraphModel dx="2901" dy="1188" grid="1" gridSize="10" guides="1" tooltips="1" connect="1" arrows="1" fold="1" page="1" pageScale="1" pageWidth="827" pageHeight="1169" math="0" shadow="0">
      <root>
        <mxCell id="0" />
        <mxCell id="1" parent="0" />
        <mxCell id="JNoaaGtZdvaQgL-QJ0f_-8" style="edgeStyle=orthogonalEdgeStyle;shape=connector;rounded=0;orthogonalLoop=1;jettySize=auto;html=1;entryX=0.672;entryY=1.005;entryDx=0;entryDy=0;entryPerimeter=0;labelBackgroundColor=default;strokeColor=default;strokeWidth=2;fontFamily=Helvetica;fontSize=11;fontColor=default;endArrow=classic;curved=1;exitX=0;exitY=1;exitDx=0;exitDy=0;" parent="1" source="JNoaaGtZdvaQgL-QJ0f_-1" target="JNoaaGtZdvaQgL-QJ0f_-5" edge="1">
          <mxGeometry relative="1" as="geometry">
            <Array as="points">
              <mxPoint x="190" y="370" />
              <mxPoint x="-64" y="370" />
            </Array>
          </mxGeometry>
        </mxCell>
        <mxCell id="JNoaaGtZdvaQgL-QJ0f_-1" value="" style="strokeColor=#dddddd;shadow=1;strokeWidth=1;rounded=1;absoluteArcSize=1;arcSize=2;" parent="1" vertex="1">
          <mxGeometry x="190" y="260" width="160" height="60" as="geometry" />
        </mxCell>
        <mxCell id="JNoaaGtZdvaQgL-QJ0f_-2" value="&lt;font color=&quot;#000000&quot;&gt;Xplorers Bot&lt;/font&gt;&lt;br&gt;Cloud Functions&lt;br&gt;Gen 2" style="editableCssRules=.*;html=1;fontColor=#999999;shape=image;verticalLabelPosition=middle;labelBackgroundColor=#ffffff;verticalAlign=middle;labelPosition=right;align=left;spacingLeft=20;part=1;points=[];imageAspect=0;image=data:image/svg+xml,PHN2ZyB4bWxucz0iaHR0cDovL3d3dy53My5vcmcvMjAwMC9zdmciIHhtbG5zOnY9Imh0dHBzOi8vdmVjdGEuaW8vbmFubyIgd2lkdGg9IjIwIiBoZWlnaHQ9IjE5Ljk4OTk5OTc3MTExODE2NCIgdmlld0JveD0iMCAwIDIwIDE5Ljk4OTk5OTc3MTExODE2NCI+JiN4YTsJPHN0eWxlIHR5cGU9InRleHQvY3NzIj4mI3hhOwkuc3Qwe2ZpbGw6IzQyODVmNDt9JiN4YTsJLnN0MXtmaWxsOiM2NjlkZjY7fSYjeGE7CS5zdDJ7ZmlsbDojYWVjYmZhO30mI3hhOwk8L3N0eWxlPiYjeGE7CTxwYXRoIGNsYXNzPSJzdDEiIGQ9Ik0zIDMuOTlMMCA2LjQydjcuMTNsMyAyLjQ0eiIvPiYjeGE7CTxwYXRoIGNsYXNzPSJzdDAiIGQ9Ik0zIDMuOTlsLTMgNCAzLTJ6bS0zIDhsMyA0di0yeiIvPiYjeGE7CTxwYXRoIGNsYXNzPSJzdDIiIGQ9Ik0wIDE1Ljk5bDQgNCAyLTItNi02em0uMDEtOEw1Ljk5IDJsLTItMkwwIDMuOTl6Ii8+JiN4YTsJPHBhdGggY2xhc3M9InN0MSIgZD0iTTE3IDE2bDMtMi40MlY2LjQ0TDE3IDR6Ii8+JiN4YTsJPHBhdGggY2xhc3M9InN0MCIgZD0iTTE3IDE2bDMtNC0zIDJ6bTMtOGwtMy00djJ6Ii8+JiN4YTsJPGcgY2xhc3M9InN0MiI+JiN4YTsJCTxwYXRoIGQ9Ik0yMCA0bC00LTQtMiAyIDYgNnptLS4wMSA4bC01Ljk4IDUuOTkgMiAyTDIwIDE2eiIvPiYjeGE7CQk8Y2lyY2xlIGN4PSI2IiBjeT0iOS45OSIgcj0iMSIvPiYjeGE7CQk8Y2lyY2xlIGN4PSIxMCIgY3k9IjkuOTkiIHI9IjEiLz4mI3hhOwkJPGNpcmNsZSBjeD0iMTMuOTkiIGN5PSI5Ljk5IiByPSIxIi8+JiN4YTsJPC9nPiYjeGE7PC9zdmc+;" parent="JNoaaGtZdvaQgL-QJ0f_-1" vertex="1">
          <mxGeometry width="30" height="24" relative="1" as="geometry">
            <mxPoint x="15" y="18" as="offset" />
          </mxGeometry>
        </mxCell>
        <mxCell id="JNoaaGtZdvaQgL-QJ0f_-3" value="Cloud&#xa;Run" style="sketch=0;html=1;verticalAlign=top;labelPosition=center;verticalLabelPosition=bottom;align=center;spacingTop=-6;fontSize=11;fontStyle=1;fontColor=#999999;shape=image;aspect=fixed;imageAspect=0;image=data:image/svg+xml,PHN2ZyB4bWxucz0iaHR0cDovL3d3dy53My5vcmcvMjAwMC9zdmciIHhtbG5zOnY9Imh0dHBzOi8vdmVjdGEuaW8vbmFubyIgd2lkdGg9IjM2NS40NjQ5OTY3NzA0MjQ5MyIgaGVpZ2h0PSIzNzkuMjIyOTk0NDYzNTc3OTUiIHZpZXdCb3g9IjAgMCA5Ni42OTU5OTkxNDU1MDc4MSAxMDAuMzM1OTk4NTM1MTU2MjUiPiYjeGE7PHN0eWxlIHR5cGU9InRleHQvY3NzIj4mI3hhOwkuc3Qwe2ZpbGw6IzQyODVmNDt9JiN4YTsJLnN0MXtmaWxsOiNhZWNiZmE7fSYjeGE7PC9zdHlsZT4mI3hhOwk8cGF0aCBjbGFzcz0ic3QwIiBkPSJNMjkuNzk0IDEwMC4zMzZMNDYuOTIgNTAuMTY4aDQ5Ljc3NnpNMCA5OS42NzFsMTIuOTc2LTQ5LjUwMkgyOS4yMkwxNi44OTcgOTIuMDU0eiIvPiYjeGE7CTxwYXRoIGNsYXNzPSJzdDEiIGQ9Ik0yOS43OTQgMEw0Ni45MiA1MC4xNjhoNDkuNzc2ek0wIC42NjZsMTIuOTc2IDQ5LjUwMkgyOS4yMkwxNi44OTcgOC4yODN6Ii8+JiN4YTs8L3N2Zz4=;" parent="1" vertex="1">
          <mxGeometry x="420" y="278" width="42" height="42" as="geometry" />
        </mxCell>
        <mxCell id="JNoaaGtZdvaQgL-QJ0f_-4" value="Cloud&#xa;Build" style="sketch=0;html=1;verticalAlign=top;labelPosition=center;verticalLabelPosition=bottom;align=center;spacingTop=-6;fontSize=11;fontStyle=1;fontColor=#999999;shape=image;aspect=fixed;imageAspect=0;image=data:image/svg+xml,PHN2ZyB4bWxucz0iaHR0cDovL3d3dy53My5vcmcvMjAwMC9zdmciIHhtbG5zOnY9Imh0dHBzOi8vdmVjdGEuaW8vbmFubyIgd2lkdGg9IjE3LjMyOTk5OTkyMzcwNjA1NSIgaGVpZ2h0PSIxOS42MTAwMDA2MTAzNTE1NjIiIHZpZXdCb3g9IjAgMCAxNy4zMjk5OTk5MjM3MDYwNTUgMTkuNjEwMDAwNjEwMzUxNTYyIj4mI3hhOwk8c3R5bGUgdHlwZT0idGV4dC9jc3MiPiYjeGE7CS5zdDB7ZmlsbDojNDI4NWY0O30mI3hhOwkuc3Qxe2ZpbGw6IzY2OWRmNjt9JiN4YTsJLnN0MntmaWxsOiNhZWNiZmE7fSYjeGE7CTwvc3R5bGU+JiN4YTsJPHBhdGggY2xhc3M9InN0MCIgZD0iTTEyLjE4IDcuOThMMTEgNy4yOWwtMy41MiA2LjEgMS4xOC42OCAzLjUyLTIuMDN6IiBmaWxsPSIjNDI4NWY0Ii8+JiN4YTsJPHBhdGggY2xhc3M9InN0MSIgZD0iTTYuMzIgMTIuNzJsMy41My02LjA5LTEuMTktLjY5LTMuNTIgMi4wNHY0LjA2eiIgZmlsbD0iIzY2OWRmNiIvPiYjeGE7CTxwYXRoIGNsYXNzPSJzdDIiIGQ9Ik0zLjc1IDcuOThMMCA1LjgxdjkuMmw3Ljk3IDQuNnYtNC4zM2wtNC4yMi0yLjQ0em05LjEzLTEuMmwzLjc2LTIuMTdMOC42NiAwIC42OCA0LjYxbDMuNzYgMi4xNyA0LjIyLTIuNDR6TTkuMzUgMTkuNjFsNy45OC00LjZ2LTkuMmwtMy43NiAyLjE3djQuODZsLTQuMjIgMi40NHoiIGZpbGw9IiNhZWNiZmEiLz4mI3hhOzwvc3ZnPg==;" parent="1" vertex="1">
          <mxGeometry x="370" y="310" width="36" height="42" as="geometry" />
        </mxCell>
        <mxCell id="JNoaaGtZdvaQgL-QJ0f_-6" style="edgeStyle=orthogonalEdgeStyle;rounded=0;orthogonalLoop=1;jettySize=auto;html=1;entryX=0;entryY=0.5;entryDx=0;entryDy=0;strokeWidth=2;" parent="1" source="JNoaaGtZdvaQgL-QJ0f_-5" target="JNoaaGtZdvaQgL-QJ0f_-1" edge="1">
          <mxGeometry relative="1" as="geometry" />
        </mxCell>
        <mxCell id="JNoaaGtZdvaQgL-QJ0f_-5" value="" style="shape=image;html=1;verticalAlign=top;verticalLabelPosition=bottom;labelBackgroundColor=#ffffff;imageAspect=0;aspect=fixed;image=https://cdn2.iconfinder.com/data/icons/social-media-2285/512/1_Slack_colored_svg-128.png" parent="1" vertex="1">
          <mxGeometry x="-110" y="256" width="68" height="68" as="geometry" />
        </mxCell>
        <mxCell id="JNoaaGtZdvaQgL-QJ0f_-7" value="/POST events" style="text;html=1;align=center;verticalAlign=middle;resizable=0;points=[];autosize=1;strokeColor=none;fillColor=none;fontSize=11;fontFamily=Helvetica;fontColor=default;" parent="1" vertex="1">
          <mxGeometry x="20" y="250" width="90" height="30" as="geometry" />
        </mxCell>
        <mxCell id="JNoaaGtZdvaQgL-QJ0f_-9" value="" style="shape=image;html=1;verticalAlign=top;verticalLabelPosition=bottom;labelBackgroundColor=#ffffff;imageAspect=0;aspect=fixed;image=https://cdn0.iconfinder.com/data/icons/phosphor-fill-vol-3/256/number-circle-one-fill-128.png;fontFamily=Helvetica;fontSize=11;fontColor=default;" parent="1" vertex="1">
          <mxGeometry x="-10" y="250" width="30" height="30" as="geometry" />
        </mxCell>
        <mxCell id="JNoaaGtZdvaQgL-QJ0f_-11" value="" style="shape=image;html=1;verticalAlign=top;verticalLabelPosition=bottom;labelBackgroundColor=#ffffff;imageAspect=0;aspect=fixed;image=https://cdn0.iconfinder.com/data/icons/phosphor-fill-vol-3/256/number-circle-two-fill-128.png;fontFamily=Helvetica;fontSize=11;fontColor=default;" parent="1" vertex="1">
          <mxGeometry x="40" y="380" width="30" height="30" as="geometry" />
        </mxCell>
        <mxCell id="JNoaaGtZdvaQgL-QJ0f_-12" value="function processes event and responds to slack appropriately" style="text;html=1;align=center;verticalAlign=middle;resizable=0;points=[];autosize=1;strokeColor=none;fillColor=none;fontSize=11;fontFamily=Helvetica;fontColor=default;" parent="1" vertex="1">
          <mxGeometry x="-105" y="400" width="320" height="30" as="geometry" />
        </mxCell>
        <mxCell id="JNoaaGtZdvaQgL-QJ0f_-13" value="Artifact&#xa;Registry" style="sketch=0;html=1;verticalAlign=top;labelPosition=center;verticalLabelPosition=bottom;align=center;spacingTop=-6;fontSize=11;fontStyle=1;fontColor=#999999;shape=image;aspect=fixed;imageAspect=0;image=data:image/svg+xml,PHN2ZyB4bWxucz0iaHR0cDovL3d3dy53My5vcmcvMjAwMC9zdmciIGlkPSJzdmc4MjciIHZlcnNpb249IjEuMSIgdmlld0JveD0iMCAwIDIwNS41MTIyOCAxODAuNTE4MjUiIGhlaWdodD0iMTgwLjUxODI1bW0iIHdpZHRoPSIyMDUuNTEyMjhtbSI+JiN4YTsgICYjeGE7ICA8ZGVmcyBpZD0iZGVmczgyNCIvPiYjeGE7ICA8ZyB0cmFuc2Zvcm09InRyYW5zbGF0ZSgtNC42MDIwNzI4LC01Ni43NjcxMjYpIiBpZD0ibGF5ZXIxIj4mI3hhOyAgICA8cGF0aCBkPSJtIDE0Mi4zMDMzMiwyMDIuNTM2NzUgMjYuNjMwNzgsLTE0Ljc0MDkzIHYgLTI5LjExOTQ4IGwgLTI2LjYzMDc4LDE0Ljg2ODYzIHogbSAtNC44MzQ4OSwwIC0yNi42MzA3OCwtMTQuNzQwOTMgdiAtMjkuMTE5NDggbCAyNi42MzA3OCwxNC44Njg2MyB6IG0gLTI3LjM3NTc4LC01My4zNDI2NCAyNi42MzA3NywtMTQuNzQwOTMgViAxMDUuMzMzNyBsIC0yNi42MzA3NywxNC44Njg2MyB6IG0gLTQuODM0OSwwIC0yNi42MzA3NzcsLTE0Ljc0MDkzIFYgMTA1LjMzMzcgbCAyNi42MzA3NzcsMTQuODY4NjMgeiBtIC0yNy4zNzU3ODgsNTMuMzQyNjQgMjYuNjMwNzc4LC0xNC43NDA5MyB2IC0yOS4xMTk0OCBsIC0yNi42MzA3NzgsMTQuODY4NjMgeiBtIC00LjgzNDg5MywwIC0yNi42MzA3NzksLTE0Ljc0MDkzIHYgLTI5LjExOTQ4IGwgMjYuNjMwNzc5LDE0Ljg2ODYzIHogTSAyMTAuMTE0MzYsMTg1LjQ1NzQzIFYgMTA4LjU1NzM1IEwgMTg5LjY4MTczLDk2LjcxMDk4MSBWIDE5Ny4zMjgwMiBaIG0gLTIwNS41MTIyODcyLDAgViAxMDguNTU3MzUgTCAyNS4wMzQ2OTYsOTYuNzEwOTgxIFYgMTk3LjMyODAyIFoiIHN0eWxlPSJvcGFjaXR5OjE7ZmlsbDojMzM2N2Q2O2ZpbGwtb3BhY2l0eToxO3N0cm9rZTpub25lO3N0cm9rZS13aWR0aDowLjI2NDU4M3B4O3N0cm9rZS1saW5lY2FwOmJ1dHQ7c3Ryb2tlLWxpbmVqb2luOm1pdGVyO3N0cm9rZS1vcGFjaXR5OjEiIGlkPSJwYXRoOTY3LTAtNiIvPiYjeGE7ICAgIDxwYXRoIGQ9Im0gMTM5Ljc5MjI1LDE2OC4yODM3OSAtMjYuMDI5NjQsLTE0LjUxMjkzIDI2LjAyOTY0LC0xNC40MTkzIDI2LjIxNjg5LDE0LjQxOTMgeiBNIDEwNy41ODE1NywxMTQuOTQxMTUgODEuNTUxOTM0LDEwMC40MjgyMiAxMDcuNTgxNTcsODYuMDA4OTE4IDEzMy43OTg0NiwxMDAuNDI4MjIgWiBtIC0zMi4yMTA2ODUsNTMuMzQyNjQgLTI2LjAyOTYzNCwtMTQuNTEyOTMgMjYuMDI5NjM0LC0xNC40MTkzIDI2LjIxNjg5NSwxNC40MTkzIHogbSA4Ni43OTQ3MDUsNjkuMDAxNTkgNDcuOTQ4NzcsLTI3Ljc4NzQ2IHYgLTI0LjA0MDQ5IGwgLTQ3Ljk0ODc3LDI3Ljg1ODIyIHogTSAyMTAuMTE0MzYsODQuNTUyNTU3IDE2Mi4xNjU1OSw1Ni43NjcxMjYgdiAyMy45NjU5MjEgbCA0Ny45NDg3NywyNy44MjQzMDMgeiBNIDUyLjU1MDgzNSwyMzcuMjg1MzggNC42MDIwNzI4LDIwOS40OTc5MiBWIDE4NS40NTc0MyBMIDUyLjU1MDgzNSwyMTMuMzE1NjUgWiBNIDQuNjAyMDcyOCw4NC41NTI1NTcgNTIuNTUwODM1LDU2Ljc2NzEyNiBWIDgwLjczMzA0NyBMIDQuNjAyMDcyOCwxMDguNTU3MzUgWiIgc3R5bGU9Im9wYWNpdHk6MTtmaWxsOiM1Yzg1ZGU7ZmlsbC1vcGFjaXR5OjE7c3Ryb2tlOm5vbmU7c3Ryb2tlLXdpZHRoOjAuMjY0NTgzcHg7c3Ryb2tlLWxpbmVjYXA6YnV0dDtzdHJva2UtbGluZWpvaW46bWl0ZXI7c3Ryb2tlLW9wYWNpdHk6MSIgaWQ9InBhdGg5NjktOCIvPiYjeGE7ICA8L2c+JiN4YTs8L3N2Zz4=;fontFamily=Helvetica;" parent="1" vertex="1">
          <mxGeometry x="367" y="242" width="42" height="37" as="geometry" />
        </mxCell>
        <mxCell id="_WCR1Cc3OQyuJSPRvzS6-1" value="&lt;b&gt;&lt;i&gt;Event Subscription&lt;br&gt;&lt;/i&gt;&lt;/b&gt;- message.channels&lt;br&gt;- team_join" style="text;html=1;align=center;verticalAlign=middle;resizable=0;points=[];autosize=1;strokeColor=none;fillColor=none;fontSize=11;fontFamily=Helvetica;fontColor=default;" parent="1" vertex="1">
          <mxGeometry x="-136" y="200" width="120" height="50" as="geometry" />
        </mxCell>
      </root>
    </mxGraphModel>
  </diagram>
  <diagram id="CGX9CUHbdzp36jS0Pc6l" name="Page-2">
    <mxGraphModel dx="2074" dy="1188" grid="0" gridSize="10" guides="1" tooltips="1" connect="1" arrows="1" fold="1" page="1" pageScale="1" pageWidth="827" pageHeight="1169" math="0" shadow="0">
      <root>
        <mxCell id="0" />
        <mxCell id="1" parent="0" />
        <mxCell id="xuy5oFrLptd2Pt7aV7f_-1" style="edgeStyle=orthogonalEdgeStyle;shape=connector;rounded=0;orthogonalLoop=1;jettySize=auto;html=1;entryX=0.672;entryY=1.005;entryDx=0;entryDy=0;entryPerimeter=0;labelBackgroundColor=default;strokeColor=default;strokeWidth=2;fontFamily=Helvetica;fontSize=11;fontColor=default;endArrow=classic;curved=1;exitX=0;exitY=1;exitDx=0;exitDy=0;" parent="1" source="xuy5oFrLptd2Pt7aV7f_-2" target="xuy5oFrLptd2Pt7aV7f_-7" edge="1">
          <mxGeometry relative="1" as="geometry">
            <Array as="points">
              <mxPoint x="464" y="374" />
              <mxPoint x="210" y="374" />
            </Array>
          </mxGeometry>
        </mxCell>
        <mxCell id="xuy5oFrLptd2Pt7aV7f_-2" value="" style="strokeColor=#dddddd;shadow=1;strokeWidth=1;rounded=1;absoluteArcSize=1;arcSize=2;" parent="1" vertex="1">
          <mxGeometry x="464" y="264" width="160" height="60" as="geometry" />
        </mxCell>
        <mxCell id="xuy5oFrLptd2Pt7aV7f_-3" value="&lt;font color=&quot;#000000&quot;&gt;Xplorers Bot&lt;/font&gt;&lt;br&gt;Cloud Functions&lt;br&gt;Gen 1" style="editableCssRules=.*;html=1;fontColor=#999999;shape=image;verticalLabelPosition=middle;labelBackgroundColor=#ffffff;verticalAlign=middle;labelPosition=right;align=left;spacingLeft=20;part=1;points=[];imageAspect=0;image=data:image/svg+xml,PHN2ZyB4bWxucz0iaHR0cDovL3d3dy53My5vcmcvMjAwMC9zdmciIHhtbG5zOnY9Imh0dHBzOi8vdmVjdGEuaW8vbmFubyIgd2lkdGg9IjIwIiBoZWlnaHQ9IjE5Ljk4OTk5OTc3MTExODE2NCIgdmlld0JveD0iMCAwIDIwIDE5Ljk4OTk5OTc3MTExODE2NCI+JiN4YTsJPHN0eWxlIHR5cGU9InRleHQvY3NzIj4mI3hhOwkuc3Qwe2ZpbGw6IzQyODVmNDt9JiN4YTsJLnN0MXtmaWxsOiM2NjlkZjY7fSYjeGE7CS5zdDJ7ZmlsbDojYWVjYmZhO30mI3hhOwk8L3N0eWxlPiYjeGE7CTxwYXRoIGNsYXNzPSJzdDEiIGQ9Ik0zIDMuOTlMMCA2LjQydjcuMTNsMyAyLjQ0eiIvPiYjeGE7CTxwYXRoIGNsYXNzPSJzdDAiIGQ9Ik0zIDMuOTlsLTMgNCAzLTJ6bS0zIDhsMyA0di0yeiIvPiYjeGE7CTxwYXRoIGNsYXNzPSJzdDIiIGQ9Ik0wIDE1Ljk5bDQgNCAyLTItNi02em0uMDEtOEw1Ljk5IDJsLTItMkwwIDMuOTl6Ii8+JiN4YTsJPHBhdGggY2xhc3M9InN0MSIgZD0iTTE3IDE2bDMtMi40MlY2LjQ0TDE3IDR6Ii8+JiN4YTsJPHBhdGggY2xhc3M9InN0MCIgZD0iTTE3IDE2bDMtNC0zIDJ6bTMtOGwtMy00djJ6Ii8+JiN4YTsJPGcgY2xhc3M9InN0MiI+JiN4YTsJCTxwYXRoIGQ9Ik0yMCA0bC00LTQtMiAyIDYgNnptLS4wMSA4bC01Ljk4IDUuOTkgMiAyTDIwIDE2eiIvPiYjeGE7CQk8Y2lyY2xlIGN4PSI2IiBjeT0iOS45OSIgcj0iMSIvPiYjeGE7CQk8Y2lyY2xlIGN4PSIxMCIgY3k9IjkuOTkiIHI9IjEiLz4mI3hhOwkJPGNpcmNsZSBjeD0iMTMuOTkiIGN5PSI5Ljk5IiByPSIxIi8+JiN4YTsJPC9nPiYjeGE7PC9zdmc+;" parent="xuy5oFrLptd2Pt7aV7f_-2" vertex="1">
          <mxGeometry width="30" height="24" relative="1" as="geometry">
            <mxPoint x="15" y="18" as="offset" />
          </mxGeometry>
        </mxCell>
        <mxCell id="xuy5oFrLptd2Pt7aV7f_-6" style="edgeStyle=orthogonalEdgeStyle;rounded=0;orthogonalLoop=1;jettySize=auto;html=1;entryX=0;entryY=0.5;entryDx=0;entryDy=0;strokeWidth=2;" parent="1" source="xuy5oFrLptd2Pt7aV7f_-7" target="xuy5oFrLptd2Pt7aV7f_-2" edge="1">
          <mxGeometry relative="1" as="geometry" />
        </mxCell>
        <mxCell id="xuy5oFrLptd2Pt7aV7f_-7" value="" style="shape=image;html=1;verticalAlign=top;verticalLabelPosition=bottom;labelBackgroundColor=#ffffff;imageAspect=0;aspect=fixed;image=https://cdn2.iconfinder.com/data/icons/social-media-2285/512/1_Slack_colored_svg-128.png" parent="1" vertex="1">
          <mxGeometry x="164" y="260" width="68" height="68" as="geometry" />
        </mxCell>
        <mxCell id="xuy5oFrLptd2Pt7aV7f_-8" value="/POST events" style="text;html=1;align=center;verticalAlign=middle;resizable=0;points=[];autosize=1;strokeColor=none;fillColor=none;fontSize=11;fontFamily=Helvetica;fontColor=default;" parent="1" vertex="1">
          <mxGeometry x="324" y="254" width="90" height="30" as="geometry" />
        </mxCell>
        <mxCell id="xuy5oFrLptd2Pt7aV7f_-9" value="" style="shape=image;html=1;verticalAlign=top;verticalLabelPosition=bottom;labelBackgroundColor=#ffffff;imageAspect=0;aspect=fixed;image=https://cdn0.iconfinder.com/data/icons/phosphor-fill-vol-3/256/number-circle-one-fill-128.png;fontFamily=Helvetica;fontSize=11;fontColor=default;" parent="1" vertex="1">
          <mxGeometry x="294" y="254" width="30" height="30" as="geometry" />
        </mxCell>
        <mxCell id="xuy5oFrLptd2Pt7aV7f_-10" value="" style="shape=image;html=1;verticalAlign=top;verticalLabelPosition=bottom;labelBackgroundColor=#ffffff;imageAspect=0;aspect=fixed;image=https://cdn0.iconfinder.com/data/icons/phosphor-fill-vol-3/256/number-circle-two-fill-128.png;fontFamily=Helvetica;fontSize=11;fontColor=default;" parent="1" vertex="1">
          <mxGeometry x="314" y="384" width="30" height="30" as="geometry" />
        </mxCell>
        <mxCell id="xuy5oFrLptd2Pt7aV7f_-11" value="function processes event and responds to slack appropriately" style="text;html=1;align=center;verticalAlign=middle;resizable=0;points=[];autosize=1;strokeColor=none;fillColor=none;fontSize=11;fontFamily=Helvetica;fontColor=default;" parent="1" vertex="1">
          <mxGeometry x="169" y="404" width="320" height="30" as="geometry" />
        </mxCell>
        <mxCell id="cu36PnFrjSKrrI8FhJQA-1" value="&lt;b&gt;&lt;i&gt;Event Subscription&lt;br&gt;&lt;/i&gt;&lt;/b&gt;- message.channels&lt;br&gt;- team_join" style="text;html=1;align=center;verticalAlign=middle;resizable=0;points=[];autosize=1;strokeColor=none;fillColor=none;fontSize=11;fontFamily=Helvetica;fontColor=default;" parent="1" vertex="1">
          <mxGeometry x="138" y="204" width="120" height="50" as="geometry" />
        </mxCell>
      </root>
    </mxGraphModel>
  </diagram>
  <diagram id="vFXLocRtToWPgLL3dxtR" name="Page-3">
    <mxGraphModel dx="2074" dy="1188" grid="0" gridSize="10" guides="1" tooltips="1" connect="1" arrows="1" fold="1" page="1" pageScale="1" pageWidth="827" pageHeight="1169" math="0" shadow="0">
      <root>
        <mxCell id="0" />
        <mxCell id="1" parent="0" />
        <mxCell id="HpyLcFuDvi5Kf42_7n74-1" value="" style="shape=image;verticalLabelPosition=bottom;labelBackgroundColor=default;verticalAlign=top;aspect=fixed;imageAspect=0;image=data:image/png,iVBORw0KGgoAAAANSUhEUgAAAToAAACgCAMAAACrFlD/AAAAsVBMVEX///8eiP8Agf95uP8AgP8Ag/+qzv8Xhv9ETlmXwv91tv9IUVz6/f/o6eqUmZ5JUlxwtP9OV2G7v8Itj//09PW00//g7v/t9f+ytbl6gIdjanPZ291aYmvm8f9urP/FyMrB2//X6P89SFOrr7Nipv/0+f9udHxUn//L4f/DxciYnaKFipA4lP+92f+hzP/f4OKLvP9Fmf9Xof92sP+TwP+Xx//t7e4zP0zQ0tR+hIuLkJbbUj2+AAANH0lEQVR4nO1dCXeiyhIGBEFBEcEtYiLua1yijuP//2GvqrpRNpOZe899mtDfORMEGmg/q2vrakaSBAQEBAQEBAQEBAQEBH42rEd34DvCCo6j3cpd7UalmSDwL9A7uIqm67oM/zRF3vYe3aHvAmurajJBZ381dSsk708QrDTiS9E0XYO/yJ/mBo/u1jdAQwGudGV3DMawNw6OU3ag8eiOPT2KQJSujqJCFryqwJ36/rA+fQ+sVbQNSQnruyB46vohPfouCNCqZui1HnCna0LffQJkyG1lnBjjmdX/vT/fByUNRmuTPjYbjRiFPfBUtNJDevUd0AJ6lCJ93CqKoh+j3lxDBVqzBFIAcAShm7JPKrl2btQy7IXY3QfoM5WZgh3aWWBP3TevZwNFlt1Hde3JAdxwS2C5YC1GCkleYRyeBz6V2cN699R418IRCdSBgK1dDMI0OfTyYDxrx8d175nxCsqMSRWjTrIOGoazyo6N4hlI5eiRHXxewIDUmAnl1IFLMqIAlgUSY1CAuwf274kBCk5m7siVOhA1zKPoLh2H88IrzoIFzHC+ItSBCkRLS4bWDTkUiOMedQ1B3ZdYZQ5YVxED9ktkmIlm1Ey0hJm4hw/w2/r0KXROtpRdV6YspEDn5PWB/XtiFIG6A31i1DVcjaYlQpe4BOdFqjgTsUBMdqcsELtNhmEgJrKd2VhB+M/CiZ3OZhKVkQj//wgwYrkdKKo6JZ36kbNTXYSwdzHGVCfTZiVdUeRYdq6owlmR6ryHo3KdvOmt1zGecMJHEUJ3HytUcFkVJph7F07dZwjAkdPltBkNcEJMb2ZcIRCij1PYWjFxtIiMKv1HdOgboYE5JmUfTaTP9lhMIYpOvsRMp+qcVWnWGlvj1qy0ojBW7z+6Y98AzR1xReVh4KKwIrGdCCP+CCXG1600UTk8ukvfBq3jirGnY3HiqiQ84b9Bs7HH0p3RR0O4JH8NjGg/sk7MDqPdavp6/Ez9zUrQBsvf/6POPTduyYD4YVfF4nYYyuruXrFicXVts8qjT1NEDy+p5YKdcjMgujrK0oLMRF/bTPO3dACpS8YVfY38Fk2TWWm7Jqc1ITmGMm9DDObOsUHqErnNGYUVq2PQslqzLebf9VSyADOisuaWsE1Qoja5C36JulhFXY/E6SqI1hYDXnccuwqrP/VbStQ6KPdqbH8wimzlSWS0TXG0Rm1mAwatVo5dtQfjwufVGNbYJmcTaURddERiSawW9zYaMDpjUz19VZYTbfrQRs2Xk0IWFmf+Q001TVTEIqevYAyizt8I2myjbSxJKmh5Ky5Dv26v31agNJVrYQVivFdXY6mJZvh2sAfXyDflZ41Ut0cZZi1X2g5ntI9rWvc07VuUyYsImLXTZKVExdmRKtm1EmsDig8zB1jzmKulPkWqj2WenOJ+FGEsUqK4iboNmaOlT1gScOg1GXofvE2P2Nxjm0a0rCAnYNRhbCCTiwsUKk00FuqHZE2BFQWV2hpHrBICl5IFuNJMBeU2wjYFiYpVEnb4h6MYVmW/y4rOMnfamC2f+CB5QlakGV91fIXaY8bj9RWZo9HbVOO25MfjSh1I2ohLXQ/X8ci0poKxAgMad0PwKkZcsYI7nLAgt1KHGAfrKa/WGZGcceZYfuU1xEpmRuOV2mjcJUHjsU0/4OciRp0UWVaBo/UaH7zGLOz1GuQ3ZE4qw9Fc5Z6S1AUqryGz9mQFCFimot58tua1zmykqnt+EEvOlFxlAJLUWSsQMOae9a9e2gH95kgjLKotJtrcyZn+YCSpQxdOTuRAArS0/ehFGHLEJawJBkPN1XhNU2dh4ckuWv3fwiP72FW0Wjuahxqv8lfok6JOmmFaZHWTqRnl5uIyNkPfZXVLpszy+NaANHXSFv017YOvtkMrqqeG4jHW5hXdwZwN10zqJMwLy5rqTvc7WY3njK8oKdc2LmuTu7L3LOooL8zDBxQuOSuF2aCloGF0oeWw0CeTOqm3h5AsrKl4HWdcB9ZjFGmTOd/4w5FNHTgbh6muqIq8P96fYA3bTEu5coVD3KMOYI1b46+WKFrj3pdtfio+oU7gcwjq/jEEdf8Yn1L3J1osr5qOZh0yJ2NaxdeVrLm7j8Z9bqzg/VAoFw7FIJf8zbSstPi4oPN3x2qJRWQ3WOtyrVwuFArlcq3Q/297+ZTAtOU+ebAvh+EEFaSssuL6ZqFWQJTpby2Hr+Yd48xMIlzgbxjT3JWrsVK79NT0rAacgdgVDvQX/uQsbyJRjUlicVMRmVNHayS01dhhjVjqBVkBilyNv192dqS93HFXvL7OjoMqEyNv8lzTEvf4eGyhnBVubQJUeuW8xbEtLSF2mO91o0xh7asWL2I6lIG5KFM92C/nbiEtVndFijbflVT9K879x2rncLiW422acKiWtyxAC4XqNmRvs103bBO1c8dyoZa0HI08il0DJyNG3KsN1Iw3TtCbUW+COUaHJOkFW+ioZGf2fjA+cBJ/xwYgBmbp8odRbPZ/ViuU0yn393IOjSwVQOgyvSYGaGQkzYgGa0b6q8jfQmm1EI1MkpDQXJUmMtCr6zX5Y93E+k2Uv2Ot1sBRWKshkX0mi71yDQHjtZYOHsBQlPM2KYY4qnxhMa+vk0DpH4ArPjRnrEz2nUVd6P+mfThsm7tZMUTAl3zxskPpvVbrw+ZQo6HJpW4N8T5CSF0c/RFfx850XUBKzgqIo3f+erH1O+IgdF0SrcbHfiV/bWEDYWGz0FQzXtXZwtLYL/y6Mfp1uUx5XoHRRFLbl7X4mxQhmkiNzVxGE3EUlVTN0jq5/oti2HjAGuQxhk0CMydyKnMSX3VYwsxJtE0Ph2vOhS58WdZtPL6T1xL341o0JRELzYDL3EWwKRQpLzyl/zqmV6T/qi21XJNliQ8zliU+0F7ehyuiyCYkFN1la//1jCoxlhfGoIz+gAzm2jG5YubyGTGKLpRdljz1trXCDbVt3rLr92BtZXpPFsqem/Z+GfoFjMtA3sq1Qr7WX3+OcaM8deXVdLv+xM1tNo7bwvYo3mqURr6DAwEBAQEBAQEBAQEBAQEBAQEBAQEBAQEBAYFnRmXerm+ue+2Xc7qJt6nQ9sS3EUxePrv1ZvPJ2RuGL3/W7rngXUwD0PH4/vDXPDy1qYYf64MLbdt8G8GL/cnNfdvxMk90q7EfqPqr+xddfhZMzM7b5rwYhD/7eXH9FufBgn+qm5w6u5q8/sW5f++u7dsZMgyYD9qx3UVKmp8fC3tJ225G37vGv6RuYWZcQJgb7czj3wgnxzlFditdABtilXO37Vy65zOKTZy6LpOkzRlbAnWb4fAt8+4vvuX7t5vXoZ3Hbj20F3DrbvKhePP2sM1HAJw/tYd173ZmOI/29rGY253o7uLXwDSYghvCR98ZADykjglPnah7MejbTAyU1Be/PgBd+ZKh0yog0VUjHP9Vc2AbA/yl8Cm+DXc26cQSdgdhq4th2AZ7muX4Z7iz7XvhGdMcDJ7GnizsRXQXLOjCZBLkVSpzs3qqVJCfur0EY7mpDIm6CdP9HYdR59S90yL+EzC0jbr0Fg76pdnpet55UsFbn9r2kN8azXDlEhK8MDsbbzMxhrjj+/6bV+mwLtaN3xXP61afhrqLndQ5Q+M6+CK6znHQDBuOk6bOoUYTI20jO2YFNAJzXs7GhB1kZT0JXbfgV3sm3RrUCG58BwdAxaErLxkPeCh+23UJrepiEX6VCHXnCHWTIWKZQZ1NctA2h8l7n+g7d9j5iz2PnrtD3ZvNdOpvE9Wpz57j+0h3lXr6RFiS1A0HthMOuGzqYrouIXW0czZTHl/dxMuHJpE0sWMm/A514Q+wMJEnnwnsC1F3Np1l/WlGq4S6Dvvqnc72b37kDnVRC5ugjs50uZMTwdIZgn1usx/lJWbJ71HHeebbGHXS2wR8d/95fJo6/8abf0HdHanzQD+CFTUc26Nr/kTqbtSlpA5wOlcd42mG7cZh/fo76mzmnER1XT2l685m54xYkpZbxsOKO9TNuQe9ZLouQZ2EyvC39Cz4TSMWqMvQdRszHIRx6pYmftGKw6WObtAxkhFX1WQCwr7tmxHzXm6/CiGk7mSQB+0xSc2grmJkOEEPQsWxh57kDRl1ngdjZW55zAmFITc/0ec4dW2740mViR/6dWfU75PknX1uGDyHfNqJfQFtd7rwFIzpnz32GHxa1Tyzh17MC/RmyYQvRl0VowrvYqQM+ePQ9Q3bMQ0fheZtYJq2Y5sGd+7rtmEMMHSIZ04837b9wbBD0YTvDAe+b/jJGLg7CLNRkwHKsdcxTGg34NZiCDp/4LB74kNN0/h1olbOi2N0kCyIJqgp81E6EIG82MbzjFfEvLqsskCxUg/Bv6D3Bp9hu6nzsJVtveGyepbe6KJ5XTpflsNUHBZeAiTW2Q9xXiwvwyvDJ7j1nDUM4YW94SqDnccn4DPPi8tykZ2HERAQEBAQEBAQEBAQEBD4yfgfLhENtFM5ToYAAAAASUVORK5CYII=;" parent="1" vertex="1">
          <mxGeometry x="119" y="290" width="134" height="68.28" as="geometry" />
        </mxCell>
        <mxCell id="HpyLcFuDvi5Kf42_7n74-16" value="authenticate to gcp" style="edgeStyle=orthogonalEdgeStyle;shape=connector;curved=1;rounded=0;orthogonalLoop=1;jettySize=auto;html=1;labelBackgroundColor=default;strokeColor=default;fontFamily=Helvetica;fontSize=11;fontColor=default;endArrow=classic;" parent="1" source="HpyLcFuDvi5Kf42_7n74-14" target="HpyLcFuDvi5Kf42_7n74-15" edge="1">
          <mxGeometry relative="1" as="geometry" />
        </mxCell>
        <mxCell id="HpyLcFuDvi5Kf42_7n74-19" style="edgeStyle=orthogonalEdgeStyle;shape=connector;curved=1;rounded=0;orthogonalLoop=1;jettySize=auto;html=1;entryX=-0.009;entryY=0.647;entryDx=0;entryDy=0;entryPerimeter=0;labelBackgroundColor=default;strokeColor=default;fontFamily=Helvetica;fontSize=11;fontColor=default;endArrow=classic;exitX=0.5;exitY=1;exitDx=0;exitDy=0;" parent="1" source="HpyLcFuDvi5Kf42_7n74-14" target="HpyLcFuDvi5Kf42_7n74-18" edge="1">
          <mxGeometry relative="1" as="geometry" />
        </mxCell>
        <mxCell id="HpyLcFuDvi5Kf42_7n74-22" style="edgeStyle=orthogonalEdgeStyle;shape=connector;curved=1;rounded=0;orthogonalLoop=1;jettySize=auto;html=1;entryX=0;entryY=0.5;entryDx=0;entryDy=0;labelBackgroundColor=default;strokeColor=default;fontFamily=Helvetica;fontSize=11;fontColor=default;endArrow=classic;exitX=0.5;exitY=1;exitDx=0;exitDy=0;" parent="1" source="HpyLcFuDvi5Kf42_7n74-14" target="HpyLcFuDvi5Kf42_7n74-21" edge="1">
          <mxGeometry relative="1" as="geometry" />
        </mxCell>
        <mxCell id="HpyLcFuDvi5Kf42_7n74-14" value="" style="shape=image;verticalLabelPosition=bottom;labelBackgroundColor=default;verticalAlign=top;aspect=fixed;imageAspect=0;image=data:image/png,iVBORw0KGgoAAAANSUhEUgAAAQMAAADCCAMAAAB6zFdcAAAAzFBMVEX///9fQ+lAQLJeQelTMuhbPemMe+5jRuoqKq00NK/p6fXUz/ioqNhdQOlQLehRL+hXN+g5ObD5+P5VNehYOuiIdu7t6vxNKOfw7v2nmvLCuvba1fnSzPgnJ6y9tPVsVOu1td4vL67k4Pt2YOxzc8ODcO3R0eqekPHLxPeyp/NmS+p9aeyXiPBoTupsbMG5r/SsoPLHwPZwWOtWVrkfH6qbm9O5ud9QULigkvGSks+Tg+94YuxFRbT29P5HH+fn4/uGhsrHx+VjY74VFapDYfotAAAFyklEQVR4nO2da3vaOBBGJQwEyILxhZK00EIbQsml7bbbTdJNmr38//+0kmOwsSVbTuwKaeb90g9tkvF5nh5mNCIQgsFgMBgMBoPBYDAYDAbTVE583RXoz2z8UXcJ2nPsuh/e6y5Cc47bdDj68aC7DK1hDCgN219016EzEQPqjDu/665EX54YMArtD29016IrWwaUa+FEdzV6kjBgWnBhaiHNgNLgCKIW9hlQxwWohQwDpoVpF5oWcgwo7UDTgoABpWP6WnddvzJCBqxb+ApIC2IGvFuAowUZA6aF9qnu4n5R5Az4EAFDCwUMwGihkAEQLZQwYFoYWa+FUgasW7BdCwoMrNeCCgOuhckr3ZU2FzUGfIg4tXYTocrAZi2oM6DOz5nuaptJBQa0fay72maCDJ7DYN3k6+Titwa/uSzVGXSnk6ba5/NvfxjCoMOm6iZeJwdnPa9vCgM2VQ/rf5383vNaLXMYNNA+/+n1Wy2zGNQ8VZ9/W7Za5jGocaoenM29lpkMWPsc1qAFPxKBsQyYFt69VAuxCMxl8OKpeicCkxlEWnhut8A7gpYNDPhU/fZZP/t7loDBDLgWqo9Tiz0RGM+Aa2FVTQvnN8s8AbMZ8NXcrboWmAhEBExnwLsFVS3c5UVgCQNVLSz6AhHYwkCpW8h2BNYx4N1CoRZSo4G9DCgNA6kW/LtiAtYwYFq4FmtB2BEcAgO3dgaSbkHSERwAg0caOLUz4FpY72th8EnSERwAA0K+tMP6GTAthJ+Tn+HLO4KDYEAefkzVHqsSA66F7W6uqCM4DAaEvP/LVfkPUY1BpAX+Bf69ggi0MyDko4oWqjKgDuVfMJgrI9DKgJCNW6qF6gyOIgZKNjwEBuThalTydPYzYFq4LNYCBAZMC0dFWoDBgGkhkGsBCgOmBVf2kGAYRN3CEDoDpoULoRZAMZBoARgDpoX8EAGNAZuqL7NagMeAkFlGCxAZZIcImAyInx4igDKIhoitFsAySGkBMANCPo9D8AzIw5oPEbAZ8G5hNITOgGnh+id4BqxbQAZxkAEy4JkEDTKYm8FANFXXxMDrmYGAiKbqWhh4vb9Nehvp7FppY1+JQe9f095OvFHZ2FdgsLz/R/cjVY9fupqrwKBvyOvBNrvfPFq2mlNmYJgIWFbJXaNZycZejYF5IiDdYJpcQSxazakxMFIErE8cJ3eNfPlqToWBaSKIw3vl9M1kPlU/k4E3N00EcZ7mheHoMtHCdVushRIGvU8DfY/xomxnpo6bXEGMD9sqMVjeGCiCOMncmLqC6K9FQ0QBg35voe0JXp7U7Jy6gkherfJakDLw5ndmiiDO3vnBcLR63P7F7F1WCzIG5oogTuYMJX0zOasFMYPl/bm+6utJ7hwpbCdauN0bIkQM+v2FttJrS/4szQkudlp4XKXOFvIMvJ7ZIogjOk9Ma+H4YqeFHAPjRRBHfKbama53H+LwNgyFDJY3xosgjuxcORxvtv/Ev30aIvYY9L2FtprrjvRs3Qmy3UKKgekdwX4K9gtsiEi0wLqFhMH8zA4RxCncsXTcq5QWgpiBPSKIU7Jn2tcC/2Pw30JbsQ2lbNfGuoXdRz5F47VvkQjilO8bh+6l5R/5pLJz7YyurP7IJ7W9c+huyr+VsVHcvTvBkb2fBKd8/8CxVwsV7mB0At3FNpTK91AsDDJABjzIABnwIANkwIMMkAEPMkAGPMgAGfAgA2TAgwyQAQ8yQAY8yAAZ8CADZMAzQQZkU/4+JusZCG8mQ2PwdNcIOgN+12gMnsHuCiJkBkpasJ6BghYAMGBa6BRqAQQD4p8W/TIEGAyYFiZyLUBhUKQFOAzk3QIkBoSIuwVYDMRaAMaAkDd5LYBjQMjrbLcAkAHrFva1AJFBVgswGTAtfE20AJUB08JwDJ4BIdshAjIDctKNtACaQawF4AyYFsIxeAZMC+5Qdwn6c9LVXQEGg8FgMBgMBoPBYDAYTCr/Ayt3f9/A4PxrAAAAAElFTkSuQmCC;" parent="1" vertex="1">
          <mxGeometry x="142.5" y="360" width="69" height="51.68" as="geometry" />
        </mxCell>
        <mxCell id="HpyLcFuDvi5Kf42_7n74-15" value="" style="editableCssRules=.*;html=1;shape=image;verticalLabelPosition=bottom;labelBackgroundColor=#ffffff;verticalAlign=top;aspect=fixed;imageAspect=0;image=data:image/svg+xml,PHN2ZyB4bWxucz0iaHR0cDovL3d3dy53My5vcmcvMjAwMC9zdmciIHhtbG5zOnY9Imh0dHBzOi8vdmVjdGEuaW8vbmFubyIgd2lkdGg9IjE2LjQyMDAwMDA3NjI5Mzk0NSIgaGVpZ2h0PSIyMC4wNDk5OTkyMzcwNjA1NDciIGZpbGwtcnVsZT0iZXZlbm9kZCIgdmlld0JveD0iMCAwIDE2LjQyMDAwMDA3NjI5Mzk0NSAyMC4wNDk5OTkyMzcwNjA1NDciPiYjeGE7CTxzdHlsZSB0eXBlPSJ0ZXh0L2NzcyI+JiN4YTsJLnN0MHtmaWxsOiM0Mjg1ZjQ7fSYjeGE7CS5zdDF7ZmlsbDojNjY5ZGY2O30mI3hhOwk8L3N0eWxlPiYjeGE7CTxwYXRoIGNsYXNzPSJzdDEiIGQ9Ik04LjIxIDBMMCAzLjQydjUuNjNjMCA1LjA2IDMuNSA5LjggOC4yMSAxMSA0LjcxLTEuMTUgOC4yMS01Ljg5IDguMjEtMTAuOTVWMy40MnptMCAzLjc5YTIuNjMgMi42MyAwIDAgMSAxLjAwNSA1LjA2QTIuNjMgMi42MyAwIDAgMSA2LjM1IDQuNTZhMi42MyAyLjYzIDAgMCAxIDEuODYtLjc3em00LjExIDExLjE1YTguNjQgOC42NCAwIDAgMS00LjExIDIuOTMgOC42NCA4LjY0IDAgMCAxLTQuMTEtMi45M3YtMi4yNWMwLTEuNjcgMi43NC0yLjUyIDQuMTEtMi41MnM0LjExLjg1IDQuMTEgMi41MnoiLz4mI3hhOwk8cGF0aCBjbGFzcz0ic3QwIiBkPSJNOC4yMSAwdjMuNzlhMi42MyAyLjYzIDAgMSAxIDAgNS4yNnYxLjEyYzEuMzcgMCA0LjExLjg1IDQuMTEgMi41MnYyLjI1YTguNjQgOC42NCAwIDAgMS00LjExIDIuOTNWMjBjNC43MS0xLjE1IDguMjEtNS44OSA4LjIxLTEwLjk1VjMuNDJ6Ii8+JiN4YTs8L3N2Zz4=;fontFamily=Helvetica;fontSize=11;fontColor=default;" parent="1" vertex="1">
          <mxGeometry x="355" y="365.84" width="32" height="40" as="geometry" />
        </mxCell>
        <mxCell id="HpyLcFuDvi5Kf42_7n74-18" value="&lt;span style=&quot;color: rgb(0, 0, 0); font-size: 12px; font-weight: 400;&quot;&gt;Cloud Storage&lt;/span&gt;" style="sketch=0;html=1;verticalAlign=top;labelPosition=center;verticalLabelPosition=bottom;align=center;spacingTop=-6;fontSize=11;fontStyle=1;fontColor=#999999;shape=image;aspect=fixed;imageAspect=0;image=data:image/svg+xml,PHN2ZyB4bWxucz0iaHR0cDovL3d3dy53My5vcmcvMjAwMC9zdmciIHhtbG5zOnY9Imh0dHBzOi8vdmVjdGEuaW8vbmFubyIgd2lkdGg9IjIwIiBoZWlnaHQ9IjE2IiB2aWV3Qm94PSIwIDAgMjAgMTYiPiYjeGE7CTxzdHlsZSB0eXBlPSJ0ZXh0L2NzcyI+JiN4YTsJLnN0MHtmaWxsOiM0Mjg1ZjQ7fSYjeGE7CS5zdDF7ZmlsbDojNjY5ZGY2O30mI3hhOwkuc3Qye2ZpbGw6I2FlY2JmYTt9JiN4YTsJLnN0M3tmaWxsOiNmZmY7fSYjeGE7CTwvc3R5bGU+JiN4YTsJPHBhdGggY2xhc3M9InN0MiIgZD0iTTAgMGgyMHY3SDB6Ii8+JiN4YTsJPHBhdGggY2xhc3M9InN0MSIgZD0iTTE4IDBoMnY3aC0yeiIvPiYjeGE7CTxwYXRoIGNsYXNzPSJzdDAiIGQ9Ik0xOCA3bDItN2gtMnoiLz4mI3hhOwk8cGF0aCBjbGFzcz0ic3QxIiBkPSJNMCAwaDJ2N0gweiIvPiYjeGE7CTxnIGNsYXNzPSJzdDMiPiYjeGE7CQk8cGF0aCBkPSJNNCAzaDZ2MUg0eiIvPiYjeGE7CQk8cmVjdCB4PSIxMyIgeT0iMiIgd2lkdGg9IjMiIGhlaWdodD0iMyIgcng9IjEuNSIvPiYjeGE7CTwvZz4mI3hhOwk8cGF0aCBjbGFzcz0ic3QyIiBkPSJNMCA5aDIwdjdIMHoiLz4mI3hhOwk8cGF0aCBjbGFzcz0ic3QxIiBkPSJNMTggOWgydjdoLTJ6Ii8+JiN4YTsJPHBhdGggY2xhc3M9InN0MCIgZD0iTTE4IDE2bDItN2gtMnoiLz4mI3hhOwk8cGF0aCBjbGFzcz0ic3QxIiBkPSJNMCA5aDJ2N0gweiIvPiYjeGE7CTxnIGNsYXNzPSJzdDMiPiYjeGE7CQk8cGF0aCBkPSJNNCAxMmg2djFINHoiLz4mI3hhOwkJPHJlY3QgeD0iMTMiIHk9IjExIiB3aWR0aD0iMyIgaGVpZ2h0PSIzIiByeD0iMS41Ii8+JiN4YTsJPC9nPiYjeGE7PC9zdmc+;fontFamily=Helvetica;" parent="1" vertex="1">
          <mxGeometry x="350" y="466" width="42" height="34" as="geometry" />
        </mxCell>
        <mxCell id="HpyLcFuDvi5Kf42_7n74-20" value="upload application to&lt;br&gt;cloud storage" style="text;html=1;align=center;verticalAlign=middle;resizable=0;points=[];autosize=1;strokeColor=none;fillColor=none;fontSize=11;fontFamily=Helvetica;fontColor=default;" parent="1" vertex="1">
          <mxGeometry x="217" y="443" width="120" height="40" as="geometry" />
        </mxCell>
        <mxCell id="HpyLcFuDvi5Kf42_7n74-21" value="&lt;span style=&quot;color: rgb(0, 0, 0); font-size: 12px; font-weight: 400;&quot;&gt;Cloud Functions&lt;/span&gt;" style="sketch=0;html=1;verticalAlign=top;labelPosition=center;verticalLabelPosition=bottom;align=center;spacingTop=-6;fontSize=11;fontStyle=1;fontColor=#999999;shape=image;aspect=fixed;imageAspect=0;image=data:image/svg+xml,PHN2ZyB4bWxucz0iaHR0cDovL3d3dy53My5vcmcvMjAwMC9zdmciIHhtbG5zOnY9Imh0dHBzOi8vdmVjdGEuaW8vbmFubyIgd2lkdGg9IjIwIiBoZWlnaHQ9IjE5Ljk4OTk5OTc3MTExODE2NCIgdmlld0JveD0iMCAwIDIwIDE5Ljk4OTk5OTc3MTExODE2NCI+JiN4YTsJPHN0eWxlIHR5cGU9InRleHQvY3NzIj4mI3hhOwkuc3Qwe2ZpbGw6IzQyODVmNDt9JiN4YTsJLnN0MXtmaWxsOiM2NjlkZjY7fSYjeGE7CS5zdDJ7ZmlsbDojYWVjYmZhO30mI3hhOwk8L3N0eWxlPiYjeGE7CTxwYXRoIGNsYXNzPSJzdDEiIGQ9Ik0zIDMuOTlMMCA2LjQydjcuMTNsMyAyLjQ0eiIvPiYjeGE7CTxwYXRoIGNsYXNzPSJzdDAiIGQ9Ik0zIDMuOTlsLTMgNCAzLTJ6bS0zIDhsMyA0di0yeiIvPiYjeGE7CTxwYXRoIGNsYXNzPSJzdDIiIGQ9Ik0wIDE1Ljk5bDQgNCAyLTItNi02em0uMDEtOEw1Ljk5IDJsLTItMkwwIDMuOTl6Ii8+JiN4YTsJPHBhdGggY2xhc3M9InN0MSIgZD0iTTE3IDE2bDMtMi40MlY2LjQ0TDE3IDR6Ii8+JiN4YTsJPHBhdGggY2xhc3M9InN0MCIgZD0iTTE3IDE2bDMtNC0zIDJ6bTMtOGwtMy00djJ6Ii8+JiN4YTsJPGcgY2xhc3M9InN0MiI+JiN4YTsJCTxwYXRoIGQ9Ik0yMCA0bC00LTQtMiAyIDYgNnptLS4wMSA4bC01Ljk4IDUuOTkgMiAyTDIwIDE2eiIvPiYjeGE7CQk8Y2lyY2xlIGN4PSI2IiBjeT0iOS45OSIgcj0iMSIvPiYjeGE7CQk8Y2lyY2xlIGN4PSIxMCIgY3k9IjkuOTkiIHI9IjEiLz4mI3hhOwkJPGNpcmNsZSBjeD0iMTMuOTkiIGN5PSI5Ljk5IiByPSIxIi8+JiN4YTsJPC9nPiYjeGE7PC9zdmc+;fontFamily=Helvetica;" parent="1" vertex="1">
          <mxGeometry x="350" y="563" width="42" height="34" as="geometry" />
        </mxCell>
        <mxCell id="HpyLcFuDvi5Kf42_7n74-23" value="deploy cloud&lt;br&gt;function" style="text;html=1;align=center;verticalAlign=middle;resizable=0;points=[];autosize=1;strokeColor=none;fillColor=none;fontSize=11;fontFamily=Helvetica;fontColor=default;" parent="1" vertex="1">
          <mxGeometry x="238" y="533" width="90" height="40" as="geometry" />
        </mxCell>
        <mxCell id="HpyLcFuDvi5Kf42_7n74-28" value="" style="shape=image;html=1;verticalAlign=top;verticalLabelPosition=bottom;labelBackgroundColor=#FFCCE6;imageAspect=0;aspect=fixed;image=https://cdn0.iconfinder.com/data/icons/phosphor-thin-vol-3/256/number-circle-one-thin-128.png;fontFamily=Helvetica;fontSize=11;fontColor=default;" parent="1" vertex="1">
          <mxGeometry x="267.31" y="348.28" width="25.62" height="25.62" as="geometry" />
        </mxCell>
        <mxCell id="HpyLcFuDvi5Kf42_7n74-29" value="" style="shape=image;html=1;verticalAlign=top;verticalLabelPosition=bottom;labelBackgroundColor=#ffffff;imageAspect=0;aspect=fixed;image=https://cdn0.iconfinder.com/data/icons/phosphor-thin-vol-3/256/number-circle-two-thin-128.png;fontFamily=Helvetica;fontSize=11;fontColor=default;" parent="1" vertex="1">
          <mxGeometry x="267.31" y="422" width="25.62" height="25.62" as="geometry" />
        </mxCell>
        <mxCell id="HpyLcFuDvi5Kf42_7n74-32" value="" style="shape=image;html=1;verticalAlign=top;verticalLabelPosition=bottom;labelBackgroundColor=#ffffff;imageAspect=0;aspect=fixed;image=https://cdn0.iconfinder.com/data/icons/phosphor-thin-vol-3/256/number-circle-three-thin-128.png;fontFamily=Helvetica;fontSize=11;fontColor=default;" parent="1" vertex="1">
          <mxGeometry x="267.31" y="516" width="25.62" height="25.62" as="geometry" />
        </mxCell>
        <mxCell id="5xSG4GVgTEuMMLkKohVo-1" value="Workload Identity&lt;br&gt;Federation" style="text;html=1;align=center;verticalAlign=middle;resizable=0;points=[];autosize=1;strokeColor=none;fillColor=none;" parent="1" vertex="1">
          <mxGeometry x="316.5" y="399" width="111" height="41" as="geometry" />
        </mxCell>
      </root>
    </mxGraphModel>
  </diagram>
  <diagram id="RjWuxHnAqdZF3TSn8X_N" name="Page-4">
    <mxGraphModel dx="2074" dy="1188" grid="0" gridSize="10" guides="1" tooltips="1" connect="1" arrows="1" fold="1" page="1" pageScale="1" pageWidth="827" pageHeight="1169" math="0" shadow="0">
      <root>
        <mxCell id="0" />
        <mxCell id="1" parent="0" />
        <mxCell id="tm_9wp4oESs1g7OVZOQ4-2" style="edgeStyle=orthogonalEdgeStyle;shape=connector;curved=1;rounded=0;orthogonalLoop=1;jettySize=auto;html=1;entryX=0;entryY=0.5;entryDx=0;entryDy=0;labelBackgroundColor=default;strokeColor=default;fontFamily=Helvetica;fontSize=11;fontColor=default;endArrow=classic;" parent="1" source="yVdTnePydFUBDNkDudj5-1" target="tm_9wp4oESs1g7OVZOQ4-1" edge="1">
          <mxGeometry relative="1" as="geometry" />
        </mxCell>
        <mxCell id="tm_9wp4oESs1g7OVZOQ4-7" style="edgeStyle=orthogonalEdgeStyle;shape=connector;curved=1;rounded=0;orthogonalLoop=1;jettySize=auto;html=1;labelBackgroundColor=default;strokeColor=default;fontFamily=Helvetica;fontSize=11;fontColor=default;endArrow=classic;" parent="1" source="yVdTnePydFUBDNkDudj5-1" target="tm_9wp4oESs1g7OVZOQ4-6" edge="1">
          <mxGeometry relative="1" as="geometry" />
        </mxCell>
        <mxCell id="uhLC6sl9mdXwQb5EIrLM-5" style="edgeStyle=orthogonalEdgeStyle;rounded=0;orthogonalLoop=1;jettySize=auto;html=1;entryX=0.002;entryY=0.551;entryDx=0;entryDy=0;curved=1;entryPerimeter=0;" parent="1" source="yVdTnePydFUBDNkDudj5-1" target="uhLC6sl9mdXwQb5EIrLM-8" edge="1">
          <mxGeometry relative="1" as="geometry" />
        </mxCell>
        <mxCell id="yVdTnePydFUBDNkDudj5-1" value="Cloud&#xa;Build" style="sketch=0;html=1;verticalAlign=top;labelPosition=center;verticalLabelPosition=bottom;align=center;spacingTop=-6;fontSize=11;fontStyle=1;fontColor=#999999;shape=image;aspect=fixed;imageAspect=0;image=data:image/svg+xml,PHN2ZyB4bWxucz0iaHR0cDovL3d3dy53My5vcmcvMjAwMC9zdmciIHhtbG5zOnY9Imh0dHBzOi8vdmVjdGEuaW8vbmFubyIgd2lkdGg9IjE3LjMyOTk5OTkyMzcwNjA1NSIgaGVpZ2h0PSIxOS42MTAwMDA2MTAzNTE1NjIiIHZpZXdCb3g9IjAgMCAxNy4zMjk5OTk5MjM3MDYwNTUgMTkuNjEwMDAwNjEwMzUxNTYyIj4mI3hhOwk8c3R5bGUgdHlwZT0idGV4dC9jc3MiPiYjeGE7CS5zdDB7ZmlsbDojNDI4NWY0O30mI3hhOwkuc3Qxe2ZpbGw6IzY2OWRmNjt9JiN4YTsJLnN0MntmaWxsOiNhZWNiZmE7fSYjeGE7CTwvc3R5bGU+JiN4YTsJPHBhdGggY2xhc3M9InN0MCIgZD0iTTEyLjE4IDcuOThMMTEgNy4yOWwtMy41MiA2LjEgMS4xOC42OCAzLjUyLTIuMDN6IiBmaWxsPSIjNDI4NWY0Ii8+JiN4YTsJPHBhdGggY2xhc3M9InN0MSIgZD0iTTYuMzIgMTIuNzJsMy41My02LjA5LTEuMTktLjY5LTMuNTIgMi4wNHY0LjA2eiIgZmlsbD0iIzY2OWRmNiIvPiYjeGE7CTxwYXRoIGNsYXNzPSJzdDIiIGQ9Ik0zLjc1IDcuOThMMCA1LjgxdjkuMmw3Ljk3IDQuNnYtNC4zM2wtNC4yMi0yLjQ0em05LjEzLTEuMmwzLjc2LTIuMTdMOC42NiAwIC42OCA0LjYxbDMuNzYgMi4xNyA0LjIyLTIuNDR6TTkuMzUgMTkuNjFsNy45OC00LjZ2LTkuMmwtMy43NiAyLjE3djQuODZsLTQuMjIgMi40NHoiIGZpbGw9IiNhZWNiZmEiLz4mI3hhOzwvc3ZnPg==;fontFamily=Helvetica;" parent="1" vertex="1">
          <mxGeometry x="90" y="320" width="42" height="49" as="geometry" />
        </mxCell>
        <mxCell id="tm_9wp4oESs1g7OVZOQ4-1" value="Cloud&#xa;Storage" style="sketch=0;html=1;verticalAlign=top;labelPosition=center;verticalLabelPosition=bottom;align=center;spacingTop=-6;fontSize=11;fontStyle=1;fontColor=#999999;shape=image;aspect=fixed;imageAspect=0;image=data:image/svg+xml,PHN2ZyB4bWxucz0iaHR0cDovL3d3dy53My5vcmcvMjAwMC9zdmciIHhtbG5zOnY9Imh0dHBzOi8vdmVjdGEuaW8vbmFubyIgd2lkdGg9IjIwIiBoZWlnaHQ9IjE2IiB2aWV3Qm94PSIwIDAgMjAgMTYiPiYjeGE7CTxzdHlsZSB0eXBlPSJ0ZXh0L2NzcyI+JiN4YTsJLnN0MHtmaWxsOiM0Mjg1ZjQ7fSYjeGE7CS5zdDF7ZmlsbDojNjY5ZGY2O30mI3hhOwkuc3Qye2ZpbGw6I2FlY2JmYTt9JiN4YTsJLnN0M3tmaWxsOiNmZmY7fSYjeGE7CTwvc3R5bGU+JiN4YTsJPHBhdGggY2xhc3M9InN0MiIgZD0iTTAgMGgyMHY3SDB6Ii8+JiN4YTsJPHBhdGggY2xhc3M9InN0MSIgZD0iTTE4IDBoMnY3aC0yeiIvPiYjeGE7CTxwYXRoIGNsYXNzPSJzdDAiIGQ9Ik0xOCA3bDItN2gtMnoiLz4mI3hhOwk8cGF0aCBjbGFzcz0ic3QxIiBkPSJNMCAwaDJ2N0gweiIvPiYjeGE7CTxnIGNsYXNzPSJzdDMiPiYjeGE7CQk8cGF0aCBkPSJNNCAzaDZ2MUg0eiIvPiYjeGE7CQk8cmVjdCB4PSIxMyIgeT0iMiIgd2lkdGg9IjMiIGhlaWdodD0iMyIgcng9IjEuNSIvPiYjeGE7CTwvZz4mI3hhOwk8cGF0aCBjbGFzcz0ic3QyIiBkPSJNMCA5aDIwdjdIMHoiLz4mI3hhOwk8cGF0aCBjbGFzcz0ic3QxIiBkPSJNMTggOWgydjdoLTJ6Ii8+JiN4YTsJPHBhdGggY2xhc3M9InN0MCIgZD0iTTE4IDE2bDItN2gtMnoiLz4mI3hhOwk8cGF0aCBjbGFzcz0ic3QxIiBkPSJNMCA5aDJ2N0gweiIvPiYjeGE7CTxnIGNsYXNzPSJzdDMiPiYjeGE7CQk8cGF0aCBkPSJNNCAxMmg2djFINHoiLz4mI3hhOwkJPHJlY3QgeD0iMTMiIHk9IjExIiB3aWR0aD0iMyIgaGVpZ2h0PSIzIiByeD0iMS41Ii8+JiN4YTsJPC9nPiYjeGE7PC9zdmc+;fontFamily=Helvetica;" parent="1" vertex="1">
          <mxGeometry x="260" y="216" width="42" height="34" as="geometry" />
        </mxCell>
        <mxCell id="tm_9wp4oESs1g7OVZOQ4-3" value="fetch application&lt;br&gt;code" style="text;html=1;align=center;verticalAlign=middle;resizable=0;points=[];autosize=1;strokeColor=none;fillColor=none;fontSize=11;fontFamily=Helvetica;fontColor=default;" parent="1" vertex="1">
          <mxGeometry x="100" y="250" width="100" height="40" as="geometry" />
        </mxCell>
        <mxCell id="tm_9wp4oESs1g7OVZOQ4-6" value="" style="image;sketch=0;aspect=fixed;html=1;points=[];align=center;fontSize=12;image=img/lib/mscae/Docker.svg;fontFamily=Helvetica;fontColor=default;" parent="1" vertex="1">
          <mxGeometry x="260" y="324" width="50" height="41" as="geometry" />
        </mxCell>
        <mxCell id="tm_9wp4oESs1g7OVZOQ4-8" value="build an image" style="text;html=1;align=center;verticalAlign=middle;resizable=0;points=[];autosize=1;strokeColor=none;fillColor=none;fontSize=11;fontFamily=Helvetica;fontColor=default;" parent="1" vertex="1">
          <mxGeometry x="302" y="324" width="100" height="30" as="geometry" />
        </mxCell>
        <mxCell id="XTKb5aARXgGbEUIVJJTk-1" value="" style="shape=image;html=1;verticalAlign=top;verticalLabelPosition=bottom;labelBackgroundColor=#FFCCE6;imageAspect=0;aspect=fixed;image=https://cdn0.iconfinder.com/data/icons/phosphor-thin-vol-3/256/number-circle-one-thin-128.png;fontFamily=Helvetica;fontSize=11;fontColor=default;" parent="1" vertex="1">
          <mxGeometry x="137.19" y="229.99999999999997" width="25.62" height="25.62" as="geometry" />
        </mxCell>
        <mxCell id="Wa8lMT7NAzFGc1gPyyxz-1" value="" style="shape=image;html=1;verticalAlign=top;verticalLabelPosition=bottom;labelBackgroundColor=#ffffff;imageAspect=0;aspect=fixed;image=https://cdn0.iconfinder.com/data/icons/phosphor-thin-vol-3/256/number-circle-two-thin-128.png;fontFamily=Helvetica;fontSize=11;fontColor=default;" parent="1" vertex="1">
          <mxGeometry x="340" y="310" width="25.62" height="25.62" as="geometry" />
        </mxCell>
        <mxCell id="uhLC6sl9mdXwQb5EIrLM-6" value="" style="group" parent="1" vertex="1" connectable="0">
          <mxGeometry x="120" y="400" width="70" height="61.24000000000001" as="geometry" />
        </mxCell>
        <mxCell id="tm_9wp4oESs1g7OVZOQ4-10" value="upload the&lt;br&gt;&amp;nbsp;image" style="text;html=1;align=center;verticalAlign=middle;resizable=0;points=[];autosize=1;strokeColor=none;fillColor=none;fontSize=11;fontFamily=Helvetica;fontColor=default;" parent="uhLC6sl9mdXwQb5EIrLM-6" vertex="1">
          <mxGeometry y="21.24000000000001" width="70" height="40" as="geometry" />
        </mxCell>
        <mxCell id="JWHAUePkKTJw8dB1vCWe-1" value="" style="shape=image;html=1;verticalAlign=top;verticalLabelPosition=bottom;labelBackgroundColor=#ffffff;imageAspect=0;aspect=fixed;image=https://cdn0.iconfinder.com/data/icons/phosphor-thin-vol-3/256/number-circle-three-thin-128.png;fontFamily=Helvetica;fontSize=11;fontColor=default;" parent="uhLC6sl9mdXwQb5EIrLM-6" vertex="1">
          <mxGeometry x="22.189999999999998" width="25.62" height="25.62" as="geometry" />
        </mxCell>
        <mxCell id="uhLC6sl9mdXwQb5EIrLM-7" value="" style="group" parent="1" vertex="1" connectable="0">
          <mxGeometry x="430" y="356.1" width="81.62" height="126.95000000000005" as="geometry" />
        </mxCell>
        <mxCell id="uhLC6sl9mdXwQb5EIrLM-17" value="" style="group" parent="uhLC6sl9mdXwQb5EIrLM-7" vertex="1" connectable="0">
          <mxGeometry x="-24" y="60.00000000000006" width="105.62" height="66.94999999999999" as="geometry" />
        </mxCell>
        <mxCell id="uhLC6sl9mdXwQb5EIrLM-12" value="" style="rounded=1;whiteSpace=wrap;html=1;container=0;" parent="uhLC6sl9mdXwQb5EIrLM-17" vertex="1">
          <mxGeometry width="105.62" height="66.95" as="geometry" />
        </mxCell>
        <mxCell id="sk25Kt4F4kqkMWklgXH0-4" value="Cloud&#xa;Run" style="sketch=0;html=1;verticalAlign=top;labelPosition=center;verticalLabelPosition=bottom;align=center;spacingTop=-6;fontSize=11;fontStyle=1;fontColor=#999999;shape=image;aspect=fixed;imageAspect=0;image=data:image/svg+xml,PHN2ZyB4bWxucz0iaHR0cDovL3d3dy53My5vcmcvMjAwMC9zdmciIHhtbG5zOnY9Imh0dHBzOi8vdmVjdGEuaW8vbmFubyIgd2lkdGg9IjM2NS40NjQ5OTY3NzA0MjQ5MyIgaGVpZ2h0PSIzNzkuMjIyOTk0NDYzNTc3OTUiIHZpZXdCb3g9IjAgMCA5Ni42OTU5OTkxNDU1MDc4MSAxMDAuMzM1OTk4NTM1MTU2MjUiPiYjeGE7PHN0eWxlIHR5cGU9InRleHQvY3NzIj4mI3hhOwkuc3Qwe2ZpbGw6IzQyODVmNDt9JiN4YTsJLnN0MXtmaWxsOiNhZWNiZmE7fSYjeGE7PC9zdHlsZT4mI3hhOwk8cGF0aCBjbGFzcz0ic3QwIiBkPSJNMjkuNzk0IDEwMC4zMzZMNDYuOTIgNTAuMTY4aDQ5Ljc3NnpNMCA5OS42NzFsMTIuOTc2LTQ5LjUwMkgyOS4yMkwxNi44OTcgOTIuMDU0eiIvPiYjeGE7CTxwYXRoIGNsYXNzPSJzdDEiIGQ9Ik0yOS43OTQgMEw0Ni45MiA1MC4xNjhoNDkuNzc2ek0wIC42NjZsMTIuOTc2IDQ5LjUwMkgyOS4yMkwxNi44OTcgOC4yODN6Ii8+JiN4YTs8L3N2Zz4=;fontFamily=Helvetica;" parent="uhLC6sl9mdXwQb5EIrLM-17" vertex="1">
          <mxGeometry x="10" y="9.049999999999955" width="28" height="28" as="geometry" />
        </mxCell>
        <mxCell id="uhLC6sl9mdXwQb5EIrLM-4" value="Cloud&#xa;Functions" style="sketch=0;html=1;verticalAlign=top;labelPosition=center;verticalLabelPosition=bottom;align=center;spacingTop=-6;fontSize=11;fontStyle=1;fontColor=#999999;shape=image;aspect=fixed;imageAspect=0;image=data:image/svg+xml,PHN2ZyB4bWxucz0iaHR0cDovL3d3dy53My5vcmcvMjAwMC9zdmciIHhtbG5zOnY9Imh0dHBzOi8vdmVjdGEuaW8vbmFubyIgd2lkdGg9IjIwIiBoZWlnaHQ9IjE5Ljk4OTk5OTc3MTExODE2NCIgdmlld0JveD0iMCAwIDIwIDE5Ljk4OTk5OTc3MTExODE2NCI+JiN4YTsJPHN0eWxlIHR5cGU9InRleHQvY3NzIj4mI3hhOwkuc3Qwe2ZpbGw6IzQyODVmNDt9JiN4YTsJLnN0MXtmaWxsOiM2NjlkZjY7fSYjeGE7CS5zdDJ7ZmlsbDojYWVjYmZhO30mI3hhOwk8L3N0eWxlPiYjeGE7CTxwYXRoIGNsYXNzPSJzdDEiIGQ9Ik0zIDMuOTlMMCA2LjQydjcuMTNsMyAyLjQ0eiIvPiYjeGE7CTxwYXRoIGNsYXNzPSJzdDAiIGQ9Ik0zIDMuOTlsLTMgNCAzLTJ6bS0zIDhsMyA0di0yeiIvPiYjeGE7CTxwYXRoIGNsYXNzPSJzdDIiIGQ9Ik0wIDE1Ljk5bDQgNCAyLTItNi02em0uMDEtOEw1Ljk5IDJsLTItMkwwIDMuOTl6Ii8+JiN4YTsJPHBhdGggY2xhc3M9InN0MSIgZD0iTTE3IDE2bDMtMi40MlY2LjQ0TDE3IDR6Ii8+JiN4YTsJPHBhdGggY2xhc3M9InN0MCIgZD0iTTE3IDE2bDMtNC0zIDJ6bTMtOGwtMy00djJ6Ii8+JiN4YTsJPGcgY2xhc3M9InN0MiI+JiN4YTsJCTxwYXRoIGQ9Ik0yMCA0bC00LTQtMiAyIDYgNnptLS4wMSA4bC01Ljk4IDUuOTkgMiAyTDIwIDE2eiIvPiYjeGE7CQk8Y2lyY2xlIGN4PSI2IiBjeT0iOS45OSIgcj0iMSIvPiYjeGE7CQk8Y2lyY2xlIGN4PSIxMCIgY3k9IjkuOTkiIHI9IjEiLz4mI3hhOwkJPGNpcmNsZSBjeD0iMTMuOTkiIGN5PSI5Ljk5IiByPSIxIi8+JiN4YTsJPC9nPiYjeGE7PC9zdmc+;" parent="uhLC6sl9mdXwQb5EIrLM-17" vertex="1">
          <mxGeometry x="60" y="9.049999999999955" width="34.59" height="28" as="geometry" />
        </mxCell>
        <mxCell id="uhLC6sl9mdXwQb5EIrLM-9" value="" style="group" parent="1" vertex="1" connectable="0">
          <mxGeometry x="234.38" y="416.1" width="105.62" height="66.94999999999999" as="geometry" />
        </mxCell>
        <mxCell id="uhLC6sl9mdXwQb5EIrLM-8" value="" style="rounded=1;whiteSpace=wrap;html=1;" parent="uhLC6sl9mdXwQb5EIrLM-9" vertex="1">
          <mxGeometry width="105.62" height="66.95" as="geometry" />
        </mxCell>
        <mxCell id="tm_9wp4oESs1g7OVZOQ4-5" value="Artifact&#xa;Registry" style="sketch=0;html=1;verticalAlign=top;labelPosition=center;verticalLabelPosition=bottom;align=center;spacingTop=-6;fontSize=11;fontStyle=1;fontColor=#999999;shape=image;aspect=fixed;imageAspect=0;image=data:image/svg+xml,PHN2ZyB4bWxucz0iaHR0cDovL3d3dy53My5vcmcvMjAwMC9zdmciIGlkPSJzdmc4MjciIHZlcnNpb249IjEuMSIgdmlld0JveD0iMCAwIDIwNS41MTIyOCAxODAuNTE4MjUiIGhlaWdodD0iMTgwLjUxODI1bW0iIHdpZHRoPSIyMDUuNTEyMjhtbSI+JiN4YTsgICYjeGE7ICA8ZGVmcyBpZD0iZGVmczgyNCIvPiYjeGE7ICA8ZyB0cmFuc2Zvcm09InRyYW5zbGF0ZSgtNC42MDIwNzI4LC01Ni43NjcxMjYpIiBpZD0ibGF5ZXIxIj4mI3hhOyAgICA8cGF0aCBkPSJtIDE0Mi4zMDMzMiwyMDIuNTM2NzUgMjYuNjMwNzgsLTE0Ljc0MDkzIHYgLTI5LjExOTQ4IGwgLTI2LjYzMDc4LDE0Ljg2ODYzIHogbSAtNC44MzQ4OSwwIC0yNi42MzA3OCwtMTQuNzQwOTMgdiAtMjkuMTE5NDggbCAyNi42MzA3OCwxNC44Njg2MyB6IG0gLTI3LjM3NTc4LC01My4zNDI2NCAyNi42MzA3NywtMTQuNzQwOTMgViAxMDUuMzMzNyBsIC0yNi42MzA3NywxNC44Njg2MyB6IG0gLTQuODM0OSwwIC0yNi42MzA3NzcsLTE0Ljc0MDkzIFYgMTA1LjMzMzcgbCAyNi42MzA3NzcsMTQuODY4NjMgeiBtIC0yNy4zNzU3ODgsNTMuMzQyNjQgMjYuNjMwNzc4LC0xNC43NDA5MyB2IC0yOS4xMTk0OCBsIC0yNi42MzA3NzgsMTQuODY4NjMgeiBtIC00LjgzNDg5MywwIC0yNi42MzA3NzksLTE0Ljc0MDkzIHYgLTI5LjExOTQ4IGwgMjYuNjMwNzc5LDE0Ljg2ODYzIHogTSAyMTAuMTE0MzYsMTg1LjQ1NzQzIFYgMTA4LjU1NzM1IEwgMTg5LjY4MTczLDk2LjcxMDk4MSBWIDE5Ny4zMjgwMiBaIG0gLTIwNS41MTIyODcyLDAgViAxMDguNTU3MzUgTCAyNS4wMzQ2OTYsOTYuNzEwOTgxIFYgMTk3LjMyODAyIFoiIHN0eWxlPSJvcGFjaXR5OjE7ZmlsbDojMzM2N2Q2O2ZpbGwtb3BhY2l0eToxO3N0cm9rZTpub25lO3N0cm9rZS13aWR0aDowLjI2NDU4M3B4O3N0cm9rZS1saW5lY2FwOmJ1dHQ7c3Ryb2tlLWxpbmVqb2luOm1pdGVyO3N0cm9rZS1vcGFjaXR5OjEiIGlkPSJwYXRoOTY3LTAtNiIvPiYjeGE7ICAgIDxwYXRoIGQ9Im0gMTM5Ljc5MjI1LDE2OC4yODM3OSAtMjYuMDI5NjQsLTE0LjUxMjkzIDI2LjAyOTY0LC0xNC40MTkzIDI2LjIxNjg5LDE0LjQxOTMgeiBNIDEwNy41ODE1NywxMTQuOTQxMTUgODEuNTUxOTM0LDEwMC40MjgyMiAxMDcuNTgxNTcsODYuMDA4OTE4IDEzMy43OTg0NiwxMDAuNDI4MjIgWiBtIC0zMi4yMTA2ODUsNTMuMzQyNjQgLTI2LjAyOTYzNCwtMTQuNTEyOTMgMjYuMDI5NjM0LC0xNC40MTkzIDI2LjIxNjg5NSwxNC40MTkzIHogbSA4Ni43OTQ3MDUsNjkuMDAxNTkgNDcuOTQ4NzcsLTI3Ljc4NzQ2IHYgLTI0LjA0MDQ5IGwgLTQ3Ljk0ODc3LDI3Ljg1ODIyIHogTSAyMTAuMTE0MzYsODQuNTUyNTU3IDE2Mi4xNjU1OSw1Ni43NjcxMjYgdiAyMy45NjU5MjEgbCA0Ny45NDg3NywyNy44MjQzMDMgeiBNIDUyLjU1MDgzNSwyMzcuMjg1MzggNC42MDIwNzI4LDIwOS40OTc5MiBWIDE4NS40NTc0MyBMIDUyLjU1MDgzNSwyMTMuMzE1NjUgWiBNIDQuNjAyMDcyOCw4NC41NTI1NTcgNTIuNTUwODM1LDU2Ljc2NzEyNiBWIDgwLjczMzA0NyBMIDQuNjAyMDcyOCwxMDguNTU3MzUgWiIgc3R5bGU9Im9wYWNpdHk6MTtmaWxsOiM1Yzg1ZGU7ZmlsbC1vcGFjaXR5OjE7c3Ryb2tlOm5vbmU7c3Ryb2tlLXdpZHRoOjAuMjY0NTgzcHg7c3Ryb2tlLWxpbmVjYXA6YnV0dDtzdHJva2UtbGluZWpvaW46bWl0ZXI7c3Ryb2tlLW9wYWNpdHk6MSIgaWQ9InBhdGg5NjktOCIvPiYjeGE7ICA8L2c+JiN4YTs8L3N2Zz4=;fontFamily=Helvetica;" parent="uhLC6sl9mdXwQb5EIrLM-9" vertex="1">
          <mxGeometry x="10" y="8.46999999999997" width="32" height="28.19" as="geometry" />
        </mxCell>
        <mxCell id="uhLC6sl9mdXwQb5EIrLM-1" value="Container&#xa;Registry" style="sketch=0;html=1;verticalAlign=top;labelPosition=center;verticalLabelPosition=bottom;align=center;spacingTop=-6;fontSize=11;fontStyle=1;fontColor=#999999;shape=image;imageAspect=0;image=data:image/svg+xml,PHN2ZyB4bWxucz0iaHR0cDovL3d3dy53My5vcmcvMjAwMC9zdmciIHhtbG5zOnY9Imh0dHBzOi8vdmVjdGEuaW8vbmFubyIgd2lkdGg9IjM3Ny4xNTkzMDIxNjAyNjMwNSIgaGVpZ2h0PSIzMzYuMTYyNDk5MDAzMzEwOCIgdmlld0JveD0iLTAuMDU4MDAwMDA1NzgxNjUwNTQgMC4xMTI5OTk5OTgwMzMwNDY3MiA5OS43OTAwMDA5MTU1MjczNCA4OC45NDMwMDA3OTM0NTcwMyI+JiN4YTs8c3R5bGUgdHlwZT0idGV4dC9jc3MiPiYjeGE7CS5zdDB7ZmlsbDojNjY5ZGY2O30mI3hhOwkuc3Qxe2ZpbGw6I2FlY2JmYTt9JiN4YTsJLnN0MntmaWxsOiM0Mjg1ZjQ7fSYjeGE7PC9zdHlsZT4mI3hhOwk8cGF0aCBjbGFzcz0ic3QwIiBkPSJNNTMuMjQzIDYyLjA5VjQ3LjA5NGwxMy4yMDEgOC40MTZ2MTUuMDM4em0tMzMuMDIxIDBWNDcuMDk0bDEzLjIwMSA4LjQxNnYxNS4wMzh6bTE2LjUxMS0zMi4yODVWMTQuODFsMTMuMjAxIDguNDE2djE1LjAzOHptNjIuOTk5IDMzLjk2VjI1LjQwM2wtOS41NjItMS44ODR2NDIuMTMxem0tOTkuNzg4IDBWMjUuNDAzbDkuNTYyLTEuODg0djQyLjEzMXoiLz4mI3hhOwk8cGF0aCBjbGFzcz0ic3QxIiBkPSJNNTMuMTg1IDQ3LjA5NGwxMy4yNTgtOC4yODcgMTMuMDE2IDguMjM0LTEzLjAxNiA4LjQ2OXptLTMzLjAyMSAwbDEzLjI1OC04LjI4NyAxMy4wMTYgOC4yMzQtMTMuMDE2IDguNDY5ek0zNi42NzUgMTQuODFsMTMuMjU4LTguMjg3IDEzLjAxNiA4LjIzNC0xMy4wMTYgOC40Njl6bTYzLjA1NiA0OC45NTZ2MTIuMjE3TDc3LjAxIDg5LjA1NVY3Ny43NTJ6bTAtMzguMzYzVjEzLjE4Nkw3Ny4wMS4xMTN2MTEuMzAzek0tLjA1OCA2My43NjZ2MTIuMjE3bDIyLjcyMSAxMy4wNzNWNzcuNzUyem0wLTM4LjM2M1YxMy4xODZMMjIuNjYzLjExM3YxMS4zMDN6Ii8+JiN4YTsJPHBhdGggY2xhc3M9InN0MiIgZD0iTTY2LjQ0NCA3MC41NDdWNTUuNTFsMTMuMDE2LTguNDY5djE1LjR6bS0zMy4wMjEgMFY1NS41MWwxMy4wMTYtOC40Njl2MTUuNHptMTYuNTExLTMyLjI4NVYyMy4yMjVsMTMuMDE2LTguNDY5djE1LjR6bTQ5Ljc5OCAyNS41MDNsLTkuNTYyIDUuODh2LTMuOTk2em0wLTM4LjM2M2wtOS41NjItNS44OHYzLjk5NnpNLS4wNTggNjMuNzY2bDkuNTYyIDUuODh2LTMuOTk2em0wLTM4LjM2M2w5LjU2Mi01Ljg4djMuOTk2eiIvPiYjeGE7PC9zdmc+;" parent="uhLC6sl9mdXwQb5EIrLM-9" vertex="1">
          <mxGeometry x="60" y="8.659999999999968" width="32" height="28" as="geometry" />
        </mxCell>
        <mxCell id="uhLC6sl9mdXwQb5EIrLM-15" style="edgeStyle=orthogonalEdgeStyle;rounded=0;orthogonalLoop=1;jettySize=auto;html=1;exitX=0.5;exitY=1;exitDx=0;exitDy=0;" parent="1" edge="1">
          <mxGeometry relative="1" as="geometry">
            <mxPoint x="345.9999999999998" y="606.6600000000001" as="sourcePoint" />
            <mxPoint x="345.9999999999998" y="606.6600000000001" as="targetPoint" />
          </mxGeometry>
        </mxCell>
        <mxCell id="uhLC6sl9mdXwQb5EIrLM-18" value="" style="group" parent="1" vertex="1" connectable="0">
          <mxGeometry x="334" y="389.58" width="80" height="60" as="geometry" />
        </mxCell>
        <mxCell id="sk25Kt4F4kqkMWklgXH0-8" value="points to the&lt;br&gt;image" style="text;html=1;align=center;verticalAlign=middle;resizable=0;points=[];autosize=1;strokeColor=none;fillColor=none;fontSize=11;fontFamily=Helvetica;fontColor=default;" parent="uhLC6sl9mdXwQb5EIrLM-18" vertex="1">
          <mxGeometry y="20" width="80" height="40" as="geometry" />
        </mxCell>
        <mxCell id="ZDZ3N6KeSmct_O977WHj-1" value="" style="shape=image;html=1;verticalAlign=top;verticalLabelPosition=bottom;labelBackgroundColor=#ffffff;imageAspect=0;aspect=fixed;image=https://cdn0.iconfinder.com/data/icons/phosphor-thin-vol-3/256/number-circle-four-thin-128.png;fontFamily=Helvetica;fontSize=11;fontColor=default;" parent="uhLC6sl9mdXwQb5EIrLM-18" vertex="1">
          <mxGeometry x="27.189999999999998" width="25.62" height="25.62" as="geometry" />
        </mxCell>
        <mxCell id="uhLC6sl9mdXwQb5EIrLM-19" style="edgeStyle=orthogonalEdgeStyle;rounded=0;orthogonalLoop=1;jettySize=auto;html=1;entryX=1;entryY=0.5;entryDx=0;entryDy=0;" parent="1" source="uhLC6sl9mdXwQb5EIrLM-12" target="uhLC6sl9mdXwQb5EIrLM-8" edge="1">
          <mxGeometry relative="1" as="geometry" />
        </mxCell>
      </root>
    </mxGraphModel>
  </diagram>
  <diagram id="FrZj4Mj6ppvef7R_Igu_" name="Page-5">
    <mxGraphModel dx="2074" dy="1188" grid="0" gridSize="10" guides="1" tooltips="1" connect="1" arrows="1" fold="1" page="1" pageScale="1" pageWidth="827" pageHeight="1169" math="0" shadow="0">
      <root>
        <mxCell id="0" />
        <mxCell id="1" parent="0" />
        <mxCell id="03n3CtA0d3WxiHsNxQWw-8" style="edgeStyle=orthogonalEdgeStyle;rounded=0;orthogonalLoop=1;jettySize=auto;html=1;entryX=0;entryY=0.5;entryDx=0;entryDy=0;exitX=0.5;exitY=0;exitDx=0;exitDy=0;" parent="1" source="vsL8hvNSokcoHeC_DGT7-1" target="03n3CtA0d3WxiHsNxQWw-2" edge="1">
          <mxGeometry relative="1" as="geometry" />
        </mxCell>
        <mxCell id="03n3CtA0d3WxiHsNxQWw-9" style="edgeStyle=orthogonalEdgeStyle;rounded=0;orthogonalLoop=1;jettySize=auto;html=1;entryX=0;entryY=0.75;entryDx=0;entryDy=0;" parent="1" source="vsL8hvNSokcoHeC_DGT7-1" target="03n3CtA0d3WxiHsNxQWw-1" edge="1">
          <mxGeometry relative="1" as="geometry" />
        </mxCell>
        <mxCell id="03n3CtA0d3WxiHsNxQWw-10" style="edgeStyle=orthogonalEdgeStyle;rounded=0;orthogonalLoop=1;jettySize=auto;html=1;entryX=0;entryY=0.5;entryDx=0;entryDy=0;exitX=0.5;exitY=1;exitDx=0;exitDy=0;" parent="1" source="vsL8hvNSokcoHeC_DGT7-1" target="TpOPogzLYigbNLzGfAXq-1" edge="1">
          <mxGeometry relative="1" as="geometry" />
        </mxCell>
        <mxCell id="vsL8hvNSokcoHeC_DGT7-1" value="" style="shape=image;verticalLabelPosition=bottom;labelBackgroundColor=default;verticalAlign=top;aspect=fixed;imageAspect=0;image=data:image/png,iVBORw0KGgoAAAANSUhEUgAAAQMAAADCCAMAAAB6zFdcAAAAzFBMVEX///9fQ+lAQLJeQelTMuhbPemMe+5jRuoqKq00NK/p6fXUz/ioqNhdQOlQLehRL+hXN+g5ObD5+P5VNehYOuiIdu7t6vxNKOfw7v2nmvLCuvba1fnSzPgnJ6y9tPVsVOu1td4vL67k4Pt2YOxzc8ODcO3R0eqekPHLxPeyp/NmS+p9aeyXiPBoTupsbMG5r/SsoPLHwPZwWOtWVrkfH6qbm9O5ud9QULigkvGSks+Tg+94YuxFRbT29P5HH+fn4/uGhsrHx+VjY74VFapDYfotAAAFyklEQVR4nO2da3vaOBBGJQwEyILxhZK00EIbQsml7bbbTdJNmr38//+0kmOwsSVbTuwKaeb90g9tkvF5nh5mNCIQgsFgMBgMBoPBYDAYDAbTVE583RXoz2z8UXcJ2nPsuh/e6y5Cc47bdDj68aC7DK1hDCgN219016EzEQPqjDu/665EX54YMArtD29016IrWwaUa+FEdzV6kjBgWnBhaiHNgNLgCKIW9hlQxwWohQwDpoVpF5oWcgwo7UDTgoABpWP6WnddvzJCBqxb+ApIC2IGvFuAowUZA6aF9qnu4n5R5Az4EAFDCwUMwGihkAEQLZQwYFoYWa+FUgasW7BdCwoMrNeCCgOuhckr3ZU2FzUGfIg4tXYTocrAZi2oM6DOz5nuaptJBQa0fay72maCDJ7DYN3k6+Titwa/uSzVGXSnk6ba5/NvfxjCoMOm6iZeJwdnPa9vCgM2VQ/rf5383vNaLXMYNNA+/+n1Wy2zGNQ8VZ9/W7Za5jGocaoenM29lpkMWPsc1qAFPxKBsQyYFt69VAuxCMxl8OKpeicCkxlEWnhut8A7gpYNDPhU/fZZP/t7loDBDLgWqo9Tiz0RGM+Aa2FVTQvnN8s8AbMZ8NXcrboWmAhEBExnwLsFVS3c5UVgCQNVLSz6AhHYwkCpW8h2BNYx4N1CoRZSo4G9DCgNA6kW/LtiAtYwYFq4FmtB2BEcAgO3dgaSbkHSERwAg0caOLUz4FpY72th8EnSERwAA0K+tMP6GTAthJ+Tn+HLO4KDYEAefkzVHqsSA66F7W6uqCM4DAaEvP/LVfkPUY1BpAX+Bf69ggi0MyDko4oWqjKgDuVfMJgrI9DKgJCNW6qF6gyOIgZKNjwEBuThalTydPYzYFq4LNYCBAZMC0dFWoDBgGkhkGsBCgOmBVf2kGAYRN3CEDoDpoULoRZAMZBoARgDpoX8EAGNAZuqL7NagMeAkFlGCxAZZIcImAyInx4igDKIhoitFsAySGkBMANCPo9D8AzIw5oPEbAZ8G5hNITOgGnh+id4BqxbQAZxkAEy4JkEDTKYm8FANFXXxMDrmYGAiKbqWhh4vb9Nehvp7FppY1+JQe9f095OvFHZ2FdgsLz/R/cjVY9fupqrwKBvyOvBNrvfPFq2mlNmYJgIWFbJXaNZycZejYF5IiDdYJpcQSxazakxMFIErE8cJ3eNfPlqToWBaSKIw3vl9M1kPlU/k4E3N00EcZ7mheHoMtHCdVushRIGvU8DfY/xomxnpo6bXEGMD9sqMVjeGCiCOMncmLqC6K9FQ0QBg35voe0JXp7U7Jy6gkherfJakDLw5ndmiiDO3vnBcLR63P7F7F1WCzIG5oogTuYMJX0zOasFMYPl/bm+6utJ7hwpbCdauN0bIkQM+v2FttJrS/4szQkudlp4XKXOFvIMvJ7ZIogjOk9Ma+H4YqeFHAPjRRBHfKbama53H+LwNgyFDJY3xosgjuxcORxvtv/Ev30aIvYY9L2FtprrjvRs3Qmy3UKKgekdwX4K9gtsiEi0wLqFhMH8zA4RxCncsXTcq5QWgpiBPSKIU7Jn2tcC/2Pw30JbsQ2lbNfGuoXdRz5F47VvkQjilO8bh+6l5R/5pLJz7YyurP7IJ7W9c+huyr+VsVHcvTvBkb2fBKd8/8CxVwsV7mB0At3FNpTK91AsDDJABjzIABnwIANkwIMMkAEPMkAGPMgAGfAgA2TAgwyQAQ8yQAY8yAAZ8CADZMAzQQZkU/4+JusZCG8mQ2PwdNcIOgN+12gMnsHuCiJkBkpasJ6BghYAMGBa6BRqAQQD4p8W/TIEGAyYFiZyLUBhUKQFOAzk3QIkBoSIuwVYDMRaAMaAkDd5LYBjQMjrbLcAkAHrFva1AJFBVgswGTAtfE20AJUB08JwDJ4BIdshAjIDctKNtACaQawF4AyYFsIxeAZMC+5Qdwn6c9LVXQEGg8FgMBgMBoPBYDAYTCr/Ayt3f9/A4PxrAAAAAElFTkSuQmCC;" parent="1" vertex="1">
          <mxGeometry x="120" y="248.32" width="69" height="51.68" as="geometry" />
        </mxCell>
        <mxCell id="TpOPogzLYigbNLzGfAXq-1" value="Cloud&#xa;Functions" style="sketch=0;html=1;verticalAlign=top;labelPosition=center;verticalLabelPosition=bottom;align=center;spacingTop=-6;fontSize=11;fontStyle=1;fontColor=#999999;shape=image;aspect=fixed;imageAspect=0;image=data:image/svg+xml,PHN2ZyB4bWxucz0iaHR0cDovL3d3dy53My5vcmcvMjAwMC9zdmciIHhtbG5zOnY9Imh0dHBzOi8vdmVjdGEuaW8vbmFubyIgd2lkdGg9IjIwIiBoZWlnaHQ9IjE5Ljk4OTk5OTc3MTExODE2NCIgdmlld0JveD0iMCAwIDIwIDE5Ljk4OTk5OTc3MTExODE2NCI+JiN4YTsJPHN0eWxlIHR5cGU9InRleHQvY3NzIj4mI3hhOwkuc3Qwe2ZpbGw6IzQyODVmNDt9JiN4YTsJLnN0MXtmaWxsOiM2NjlkZjY7fSYjeGE7CS5zdDJ7ZmlsbDojYWVjYmZhO30mI3hhOwk8L3N0eWxlPiYjeGE7CTxwYXRoIGNsYXNzPSJzdDEiIGQ9Ik0zIDMuOTlMMCA2LjQydjcuMTNsMyAyLjQ0eiIvPiYjeGE7CTxwYXRoIGNsYXNzPSJzdDAiIGQ9Ik0zIDMuOTlsLTMgNCAzLTJ6bS0zIDhsMyA0di0yeiIvPiYjeGE7CTxwYXRoIGNsYXNzPSJzdDIiIGQ9Ik0wIDE1Ljk5bDQgNCAyLTItNi02em0uMDEtOEw1Ljk5IDJsLTItMkwwIDMuOTl6Ii8+JiN4YTsJPHBhdGggY2xhc3M9InN0MSIgZD0iTTE3IDE2bDMtMi40MlY2LjQ0TDE3IDR6Ii8+JiN4YTsJPHBhdGggY2xhc3M9InN0MCIgZD0iTTE3IDE2bDMtNC0zIDJ6bTMtOGwtMy00djJ6Ii8+JiN4YTsJPGcgY2xhc3M9InN0MiI+JiN4YTsJCTxwYXRoIGQ9Ik0yMCA0bC00LTQtMiAyIDYgNnptLS4wMSA4bC01Ljk4IDUuOTkgMiAyTDIwIDE2eiIvPiYjeGE7CQk8Y2lyY2xlIGN4PSI2IiBjeT0iOS45OSIgcj0iMSIvPiYjeGE7CQk8Y2lyY2xlIGN4PSIxMCIgY3k9IjkuOTkiIHI9IjEiLz4mI3hhOwkJPGNpcmNsZSBjeD0iMTMuOTkiIGN5PSI5Ljk5IiByPSIxIi8+JiN4YTsJPC9nPiYjeGE7PC9zdmc+;fontFamily=Helvetica;" parent="1" vertex="1">
          <mxGeometry x="286.5" y="350" width="41" height="33.19" as="geometry" />
        </mxCell>
        <mxCell id="TpOPogzLYigbNLzGfAXq-3" value="&lt;font style=&quot;font-size: 10px;&quot;&gt;plan/apply/destroy&lt;/font&gt;" style="text;html=1;align=center;verticalAlign=middle;resizable=0;points=[];autosize=1;strokeColor=none;fillColor=none;" parent="1" vertex="1">
          <mxGeometry x="170" y="340" width="100" height="30" as="geometry" />
        </mxCell>
        <mxCell id="03n3CtA0d3WxiHsNxQWw-1" value="Cloud&#xa;Storage" style="sketch=0;html=1;verticalAlign=top;labelPosition=center;verticalLabelPosition=bottom;align=center;spacingTop=-6;fontSize=11;fontStyle=1;fontColor=#999999;shape=image;aspect=fixed;imageAspect=0;image=data:image/svg+xml,PHN2ZyB4bWxucz0iaHR0cDovL3d3dy53My5vcmcvMjAwMC9zdmciIHhtbG5zOnY9Imh0dHBzOi8vdmVjdGEuaW8vbmFubyIgd2lkdGg9IjIwIiBoZWlnaHQ9IjE2IiB2aWV3Qm94PSIwIDAgMjAgMTYiPiYjeGE7CTxzdHlsZSB0eXBlPSJ0ZXh0L2NzcyI+JiN4YTsJLnN0MHtmaWxsOiM0Mjg1ZjQ7fSYjeGE7CS5zdDF7ZmlsbDojNjY5ZGY2O30mI3hhOwkuc3Qye2ZpbGw6I2FlY2JmYTt9JiN4YTsJLnN0M3tmaWxsOiNmZmY7fSYjeGE7CTwvc3R5bGU+JiN4YTsJPHBhdGggY2xhc3M9InN0MiIgZD0iTTAgMGgyMHY3SDB6Ii8+JiN4YTsJPHBhdGggY2xhc3M9InN0MSIgZD0iTTE4IDBoMnY3aC0yeiIvPiYjeGE7CTxwYXRoIGNsYXNzPSJzdDAiIGQ9Ik0xOCA3bDItN2gtMnoiLz4mI3hhOwk8cGF0aCBjbGFzcz0ic3QxIiBkPSJNMCAwaDJ2N0gweiIvPiYjeGE7CTxnIGNsYXNzPSJzdDMiPiYjeGE7CQk8cGF0aCBkPSJNNCAzaDZ2MUg0eiIvPiYjeGE7CQk8cmVjdCB4PSIxMyIgeT0iMiIgd2lkdGg9IjMiIGhlaWdodD0iMyIgcng9IjEuNSIvPiYjeGE7CTwvZz4mI3hhOwk8cGF0aCBjbGFzcz0ic3QyIiBkPSJNMCA5aDIwdjdIMHoiLz4mI3hhOwk8cGF0aCBjbGFzcz0ic3QxIiBkPSJNMTggOWgydjdoLTJ6Ii8+JiN4YTsJPHBhdGggY2xhc3M9InN0MCIgZD0iTTE4IDE2bDItN2gtMnoiLz4mI3hhOwk8cGF0aCBjbGFzcz0ic3QxIiBkPSJNMCA5aDJ2N0gweiIvPiYjeGE7CTxnIGNsYXNzPSJzdDMiPiYjeGE7CQk8cGF0aCBkPSJNNCAxMmg2djFINHoiLz4mI3hhOwkJPHJlY3QgeD0iMTMiIHk9IjExIiB3aWR0aD0iMyIgaGVpZ2h0PSIzIiByeD0iMS41Ii8+JiN4YTsJPC9nPiYjeGE7PC9zdmc+;fontFamily=Helvetica;" parent="1" vertex="1">
          <mxGeometry x="282" y="248.32" width="42" height="34" as="geometry" />
        </mxCell>
        <mxCell id="03n3CtA0d3WxiHsNxQWw-2" value="Cloud&#xa;IAM" style="sketch=0;html=1;verticalAlign=top;labelPosition=center;verticalLabelPosition=bottom;align=center;spacingTop=-6;fontSize=11;fontStyle=1;fontColor=#999999;shape=image;aspect=fixed;imageAspect=0;image=data:image/svg+xml,PHN2ZyB4bWxucz0iaHR0cDovL3d3dy53My5vcmcvMjAwMC9zdmciIHhtbG5zOnY9Imh0dHBzOi8vdmVjdGEuaW8vbmFubyIgd2lkdGg9IjE2LjQyMDAwMDA3NjI5Mzk0NSIgaGVpZ2h0PSIyMC4wNDk5OTkyMzcwNjA1NDciIGZpbGwtcnVsZT0iZXZlbm9kZCIgdmlld0JveD0iMCAwIDE2LjQyMDAwMDA3NjI5Mzk0NSAyMC4wNDk5OTkyMzcwNjA1NDciPiYjeGE7CTxzdHlsZSB0eXBlPSJ0ZXh0L2NzcyI+JiN4YTsJLnN0MHtmaWxsOiM0Mjg1ZjQ7fSYjeGE7CS5zdDF7ZmlsbDojNjY5ZGY2O30mI3hhOwk8L3N0eWxlPiYjeGE7CTxwYXRoIGNsYXNzPSJzdDEiIGQ9Ik04LjIxIDBMMCAzLjQydjUuNjNjMCA1LjA2IDMuNSA5LjggOC4yMSAxMSA0LjcxLTEuMTUgOC4yMS01Ljg5IDguMjEtMTAuOTVWMy40MnptMCAzLjc5YTIuNjMgMi42MyAwIDAgMSAxLjAwNSA1LjA2QTIuNjMgMi42MyAwIDAgMSA2LjM1IDQuNTZhMi42MyAyLjYzIDAgMCAxIDEuODYtLjc3em00LjExIDExLjE1YTguNjQgOC42NCAwIDAgMS00LjExIDIuOTMgOC42NCA4LjY0IDAgMCAxLTQuMTEtMi45M3YtMi4yNWMwLTEuNjcgMi43NC0yLjUyIDQuMTEtMi41MnM0LjExLjg1IDQuMTEgMi41MnoiLz4mI3hhOwk8cGF0aCBjbGFzcz0ic3QwIiBkPSJNOC4yMSAwdjMuNzlhMi42MyAyLjYzIDAgMSAxIDAgNS4yNnYxLjEyYzEuMzcgMCA0LjExLjg1IDQuMTEgMi41MnYyLjI1YTguNjQgOC42NCAwIDAgMS00LjExIDIuOTNWMjBjNC43MS0xLjE1IDguMjEtNS44OSA4LjIxLTEwLjk1VjMuNDJ6Ii8+JiN4YTs8L3N2Zz4=;" parent="1" vertex="1">
          <mxGeometry x="290" y="150" width="34" height="42" as="geometry" />
        </mxCell>
        <mxCell id="03n3CtA0d3WxiHsNxQWw-11" value="&lt;font style=&quot;font-size: 10px;&quot;&gt;update state info&lt;/font&gt;" style="text;html=1;align=center;verticalAlign=middle;resizable=0;points=[];autosize=1;strokeColor=none;fillColor=none;" parent="1" vertex="1">
          <mxGeometry x="182" y="248.32" width="100" height="30" as="geometry" />
        </mxCell>
        <mxCell id="03n3CtA0d3WxiHsNxQWw-12" value="&lt;font style=&quot;font-size: 10px;&quot;&gt;authenticate to GCP&lt;/font&gt;" style="text;html=1;align=center;verticalAlign=middle;resizable=0;points=[];autosize=1;strokeColor=none;fillColor=none;" parent="1" vertex="1">
          <mxGeometry x="162" y="140" width="110" height="30" as="geometry" />
        </mxCell>
        <mxCell id="03n3CtA0d3WxiHsNxQWw-13" value="&lt;font style=&quot;font-size: 10px;&quot;&gt;tf backend&lt;/font&gt;" style="text;html=1;align=center;verticalAlign=middle;resizable=0;points=[];autosize=1;strokeColor=none;fillColor=none;" parent="1" vertex="1">
          <mxGeometry x="320" y="248.32" width="70" height="30" as="geometry" />
        </mxCell>
        <mxCell id="1Ntn5nc2gaw3vTxtgntQ-1" value="" style="shape=image;html=1;verticalAlign=top;verticalLabelPosition=bottom;labelBackgroundColor=#FFCCE6;imageAspect=0;aspect=fixed;image=https://cdn0.iconfinder.com/data/icons/phosphor-thin-vol-3/256/number-circle-one-thin-128.png;fontFamily=Helvetica;fontSize=11;fontColor=default;" parent="1" vertex="1">
          <mxGeometry x="204.19" y="124.37999999999997" width="25.62" height="25.62" as="geometry" />
        </mxCell>
        <mxCell id="6RF83xdubR868q0N1CDm-1" value="" style="shape=image;html=1;verticalAlign=top;verticalLabelPosition=bottom;labelBackgroundColor=#ffffff;imageAspect=0;aspect=fixed;image=https://cdn0.iconfinder.com/data/icons/phosphor-thin-vol-3/256/number-circle-two-thin-128.png;fontFamily=Helvetica;fontSize=11;fontColor=default;" parent="1" vertex="1">
          <mxGeometry x="220" y="230" width="25.62" height="25.62" as="geometry" />
        </mxCell>
        <mxCell id="a7Hhg7wlhDvUBRymcwPn-3" value="" style="shape=image;html=1;verticalAlign=top;verticalLabelPosition=bottom;labelBackgroundColor=#ffffff;imageAspect=0;aspect=fixed;image=https://cdn0.iconfinder.com/data/icons/phosphor-thin-vol-3/256/number-circle-three-thin-128.png;fontFamily=Helvetica;fontSize=11;fontColor=default;container=0;" parent="1" vertex="1">
          <mxGeometry x="207.19" y="324.38" width="25.62" height="25.62" as="geometry" />
        </mxCell>
      </root>
    </mxGraphModel>
  </diagram>
  <diagram id="LHKwmzSFW7ScuaCkoEb0" name="Page-6">
    <mxGraphModel dx="2074" dy="1188" grid="0" gridSize="10" guides="1" tooltips="1" connect="1" arrows="1" fold="1" page="1" pageScale="1" pageWidth="827" pageHeight="1169" math="0" shadow="0">
      <root>
        <mxCell id="0" />
        <mxCell id="1" parent="0" />
        <mxCell id="t1V0RL60wSGjaN6FaPNo-24" style="edgeStyle=orthogonalEdgeStyle;rounded=0;orthogonalLoop=1;jettySize=auto;html=1;entryX=-0.017;entryY=0.645;entryDx=0;entryDy=0;entryPerimeter=0;" parent="1" source="uMlQkMEfRqLi8yagQQMt-1" target="t1V0RL60wSGjaN6FaPNo-9" edge="1">
          <mxGeometry relative="1" as="geometry">
            <Array as="points">
              <mxPoint x="257" y="293.92" />
            </Array>
          </mxGeometry>
        </mxCell>
        <mxCell id="uMlQkMEfRqLi8yagQQMt-1" value="" style="shape=image;verticalLabelPosition=bottom;labelBackgroundColor=default;verticalAlign=top;aspect=fixed;imageAspect=0;image=data:image/png,iVBORw0KGgoAAAANSUhEUgAAAToAAACgCAMAAACrFlD/AAAAsVBMVEX///8eiP8Agf95uP8AgP8Ag/+qzv8Xhv9ETlmXwv91tv9IUVz6/f/o6eqUmZ5JUlxwtP9OV2G7v8Itj//09PW00//g7v/t9f+ytbl6gIdjanPZ291aYmvm8f9urP/FyMrB2//X6P89SFOrr7Nipv/0+f9udHxUn//L4f/DxciYnaKFipA4lP+92f+hzP/f4OKLvP9Fmf9Xof92sP+TwP+Xx//t7e4zP0zQ0tR+hIuLkJbbUj2+AAANH0lEQVR4nO1dCXeiyhIGBEFBEcEtYiLua1yijuP//2GvqrpRNpOZe899mtDfORMEGmg/q2vrakaSBAQEBAQEBAQEBAQEBH42rEd34DvCCo6j3cpd7UalmSDwL9A7uIqm67oM/zRF3vYe3aHvAmurajJBZ381dSsk708QrDTiS9E0XYO/yJ/mBo/u1jdAQwGudGV3DMawNw6OU3ag8eiOPT2KQJSujqJCFryqwJ36/rA+fQ+sVbQNSQnruyB46vohPfouCNCqZui1HnCna0LffQJkyG1lnBjjmdX/vT/fByUNRmuTPjYbjRiFPfBUtNJDevUd0AJ6lCJ93CqKoh+j3lxDBVqzBFIAcAShm7JPKrl2btQy7IXY3QfoM5WZgh3aWWBP3TevZwNFlt1Hde3JAdxwS2C5YC1GCkleYRyeBz6V2cN699R418IRCdSBgK1dDMI0OfTyYDxrx8d175nxCsqMSRWjTrIOGoazyo6N4hlI5eiRHXxewIDUmAnl1IFLMqIAlgUSY1CAuwf274kBCk5m7siVOhA1zKPoLh2H88IrzoIFzHC+ItSBCkRLS4bWDTkUiOMedQ1B3ZdYZQ5YVxED9ktkmIlm1Ey0hJm4hw/w2/r0KXROtpRdV6YspEDn5PWB/XtiFIG6A31i1DVcjaYlQpe4BOdFqjgTsUBMdqcsELtNhmEgJrKd2VhB+M/CiZ3OZhKVkQj//wgwYrkdKKo6JZ36kbNTXYSwdzHGVCfTZiVdUeRYdq6owlmR6ryHo3KdvOmt1zGecMJHEUJ3HytUcFkVJph7F07dZwjAkdPltBkNcEJMb2ZcIRCij1PYWjFxtIiMKv1HdOgboYE5JmUfTaTP9lhMIYpOvsRMp+qcVWnWGlvj1qy0ojBW7z+6Y98AzR1xReVh4KKwIrGdCCP+CCXG1600UTk8ukvfBq3jirGnY3HiqiQ84b9Bs7HH0p3RR0O4JH8NjGg/sk7MDqPdavp6/Ez9zUrQBsvf/6POPTduyYD4YVfF4nYYyuruXrFicXVts8qjT1NEDy+p5YKdcjMgujrK0oLMRF/bTPO3dACpS8YVfY38Fk2TWWm7Jqc1ITmGMm9DDObOsUHqErnNGYUVq2PQslqzLebf9VSyADOisuaWsE1Qoja5C36JulhFXY/E6SqI1hYDXnccuwqrP/VbStQ6KPdqbH8wimzlSWS0TXG0Rm1mAwatVo5dtQfjwufVGNbYJmcTaURddERiSawW9zYaMDpjUz19VZYTbfrQRs2Xk0IWFmf+Q001TVTEIqevYAyizt8I2myjbSxJKmh5Ky5Dv26v31agNJVrYQVivFdXY6mJZvh2sAfXyDflZ41Ut0cZZi1X2g5ntI9rWvc07VuUyYsImLXTZKVExdmRKtm1EmsDig8zB1jzmKulPkWqj2WenOJ+FGEsUqK4iboNmaOlT1gScOg1GXofvE2P2Nxjm0a0rCAnYNRhbCCTiwsUKk00FuqHZE2BFQWV2hpHrBICl5IFuNJMBeU2wjYFiYpVEnb4h6MYVmW/y4rOMnfamC2f+CB5QlakGV91fIXaY8bj9RWZo9HbVOO25MfjSh1I2ohLXQ/X8ci0poKxAgMad0PwKkZcsYI7nLAgt1KHGAfrKa/WGZGcceZYfuU1xEpmRuOV2mjcJUHjsU0/4OciRp0UWVaBo/UaH7zGLOz1GuQ3ZE4qw9Fc5Z6S1AUqryGz9mQFCFimot58tua1zmykqnt+EEvOlFxlAJLUWSsQMOae9a9e2gH95kgjLKotJtrcyZn+YCSpQxdOTuRAArS0/ehFGHLEJawJBkPN1XhNU2dh4ckuWv3fwiP72FW0Wjuahxqv8lfok6JOmmFaZHWTqRnl5uIyNkPfZXVLpszy+NaANHXSFv017YOvtkMrqqeG4jHW5hXdwZwN10zqJMwLy5rqTvc7WY3njK8oKdc2LmuTu7L3LOooL8zDBxQuOSuF2aCloGF0oeWw0CeTOqm3h5AsrKl4HWdcB9ZjFGmTOd/4w5FNHTgbh6muqIq8P96fYA3bTEu5coVD3KMOYI1b46+WKFrj3pdtfio+oU7gcwjq/jEEdf8Yn1L3J1osr5qOZh0yJ2NaxdeVrLm7j8Z9bqzg/VAoFw7FIJf8zbSstPi4oPN3x2qJRWQ3WOtyrVwuFArlcq3Q/297+ZTAtOU+ebAvh+EEFaSssuL6ZqFWQJTpby2Hr+Yd48xMIlzgbxjT3JWrsVK79NT0rAacgdgVDvQX/uQsbyJRjUlicVMRmVNHayS01dhhjVjqBVkBilyNv192dqS93HFXvL7OjoMqEyNv8lzTEvf4eGyhnBVubQJUeuW8xbEtLSF2mO91o0xh7asWL2I6lIG5KFM92C/nbiEtVndFijbflVT9K879x2rncLiW422acKiWtyxAC4XqNmRvs103bBO1c8dyoZa0HI08il0DJyNG3KsN1Iw3TtCbUW+COUaHJOkFW+ioZGf2fjA+cBJ/xwYgBmbp8odRbPZ/ViuU0yn393IOjSwVQOgyvSYGaGQkzYgGa0b6q8jfQmm1EI1MkpDQXJUmMtCr6zX5Y93E+k2Uv2Ot1sBRWKshkX0mi71yDQHjtZYOHsBQlPM2KYY4qnxhMa+vk0DpH4ArPjRnrEz2nUVd6P+mfThsm7tZMUTAl3zxskPpvVbrw+ZQo6HJpW4N8T5CSF0c/RFfx850XUBKzgqIo3f+erH1O+IgdF0SrcbHfiV/bWEDYWGz0FQzXtXZwtLYL/y6Mfp1uUx5XoHRRFLbl7X4mxQhmkiNzVxGE3EUlVTN0jq5/oti2HjAGuQxhk0CMydyKnMSX3VYwsxJtE0Ph2vOhS58WdZtPL6T1xL341o0JRELzYDL3EWwKRQpLzyl/zqmV6T/qi21XJNliQ8zliU+0F7ehyuiyCYkFN1la//1jCoxlhfGoIz+gAzm2jG5YubyGTGKLpRdljz1trXCDbVt3rLr92BtZXpPFsqem/Z+GfoFjMtA3sq1Qr7WX3+OcaM8deXVdLv+xM1tNo7bwvYo3mqURr6DAwEBAQEBAQEBAQEBAQEBAQEBAQEBAQEBAYFnRmXerm+ue+2Xc7qJt6nQ9sS3EUxePrv1ZvPJ2RuGL3/W7rngXUwD0PH4/vDXPDy1qYYf64MLbdt8G8GL/cnNfdvxMk90q7EfqPqr+xddfhZMzM7b5rwYhD/7eXH9FufBgn+qm5w6u5q8/sW5f++u7dsZMgyYD9qx3UVKmp8fC3tJ225G37vGv6RuYWZcQJgb7czj3wgnxzlFditdABtilXO37Vy65zOKTZy6LpOkzRlbAnWb4fAt8+4vvuX7t5vXoZ3Hbj20F3DrbvKhePP2sM1HAJw/tYd173ZmOI/29rGY253o7uLXwDSYghvCR98ZADykjglPnah7MejbTAyU1Be/PgBd+ZKh0yog0VUjHP9Vc2AbA/yl8Cm+DXc26cQSdgdhq4th2AZ7muX4Z7iz7XvhGdMcDJ7GnizsRXQXLOjCZBLkVSpzs3qqVJCfur0EY7mpDIm6CdP9HYdR59S90yL+EzC0jbr0Fg76pdnpet55UsFbn9r2kN8azXDlEhK8MDsbbzMxhrjj+/6bV+mwLtaN3xXP61afhrqLndQ5Q+M6+CK6znHQDBuOk6bOoUYTI20jO2YFNAJzXs7GhB1kZT0JXbfgV3sm3RrUCG58BwdAxaErLxkPeCh+23UJrepiEX6VCHXnCHWTIWKZQZ1NctA2h8l7n+g7d9j5iz2PnrtD3ZvNdOpvE9Wpz57j+0h3lXr6RFiS1A0HthMOuGzqYrouIXW0czZTHl/dxMuHJpE0sWMm/A514Q+wMJEnnwnsC1F3Np1l/WlGq4S6Dvvqnc72b37kDnVRC5ugjs50uZMTwdIZgn1usx/lJWbJ71HHeebbGHXS2wR8d/95fJo6/8abf0HdHanzQD+CFTUc26Nr/kTqbtSlpA5wOlcd42mG7cZh/fo76mzmnER1XT2l685m54xYkpZbxsOKO9TNuQe9ZLouQZ2EyvC39Cz4TSMWqMvQdRszHIRx6pYmftGKw6WObtAxkhFX1WQCwr7tmxHzXm6/CiGk7mSQB+0xSc2grmJkOEEPQsWxh57kDRl1ngdjZW55zAmFITc/0ec4dW2740mViR/6dWfU75PknX1uGDyHfNqJfQFtd7rwFIzpnz32GHxa1Tyzh17MC/RmyYQvRl0VowrvYqQM+ePQ9Q3bMQ0fheZtYJq2Y5sGd+7rtmEMMHSIZ04837b9wbBD0YTvDAe+b/jJGLg7CLNRkwHKsdcxTGg34NZiCDp/4LB74kNN0/h1olbOi2N0kCyIJqgp81E6EIG82MbzjFfEvLqsskCxUg/Bv6D3Bp9hu6nzsJVtveGyepbe6KJ5XTpflsNUHBZeAiTW2Q9xXiwvwyvDJ7j1nDUM4YW94SqDnccn4DPPi8tykZ2HERAQEBAQEBAQEBAQEBD4yfgfLhENtFM5ToYAAAAASUVORK5CYII=;" parent="1" vertex="1">
          <mxGeometry x="96" y="273.94" width="105" height="53.5" as="geometry" />
        </mxCell>
        <mxCell id="y0zyJRoavZWraJmP3ed2-3" value="" style="group" parent="1" vertex="1" connectable="0">
          <mxGeometry x="265" y="381" width="104" height="59.160000000000025" as="geometry" />
        </mxCell>
        <mxCell id="y0zyJRoavZWraJmP3ed2-1" value="" style="editableCssRules=.*;html=1;shape=image;verticalLabelPosition=bottom;labelBackgroundColor=#ffffff;verticalAlign=top;aspect=fixed;imageAspect=0;image=data:image/svg+xml,PHN2ZyB4bWxucz0iaHR0cDovL3d3dy53My5vcmcvMjAwMC9zdmciIHhtbG5zOnY9Imh0dHBzOi8vdmVjdGEuaW8vbmFubyIgd2lkdGg9IjE2LjQyMDAwMDA3NjI5Mzk0NSIgaGVpZ2h0PSIyMC4wNDk5OTkyMzcwNjA1NDciIGZpbGwtcnVsZT0iZXZlbm9kZCIgdmlld0JveD0iMCAwIDE2LjQyMDAwMDA3NjI5Mzk0NSAyMC4wNDk5OTkyMzcwNjA1NDciPiYjeGE7CTxzdHlsZSB0eXBlPSJ0ZXh0L2NzcyI+JiN4YTsJLnN0MHtmaWxsOiM0Mjg1ZjQ7fSYjeGE7CS5zdDF7ZmlsbDojNjY5ZGY2O30mI3hhOwk8L3N0eWxlPiYjeGE7CTxwYXRoIGNsYXNzPSJzdDEiIGQ9Ik04LjIxIDBMMCAzLjQydjUuNjNjMCA1LjA2IDMuNSA5LjggOC4yMSAxMSA0LjcxLTEuMTUgOC4yMS01Ljg5IDguMjEtMTAuOTVWMy40MnptMCAzLjc5YTIuNjMgMi42MyAwIDAgMSAxLjAwNSA1LjA2QTIuNjMgMi42MyAwIDAgMSA2LjM1IDQuNTZhMi42MyAyLjYzIDAgMCAxIDEuODYtLjc3em00LjExIDExLjE1YTguNjQgOC42NCAwIDAgMS00LjExIDIuOTMgOC42NCA4LjY0IDAgMCAxLTQuMTEtMi45M3YtMi4yNWMwLTEuNjcgMi43NC0yLjUyIDQuMTEtMi41MnM0LjExLjg1IDQuMTEgMi41MnoiLz4mI3hhOwk8cGF0aCBjbGFzcz0ic3QwIiBkPSJNOC4yMSAwdjMuNzlhMi42MyAyLjYzIDAgMSAxIDAgNS4yNnYxLjEyYzEuMzcgMCA0LjExLjg1IDQuMTEgMi41MnYyLjI1YTguNjQgOC42NCAwIDAgMS00LjExIDIuOTNWMjBjNC43MS0xLjE1IDguMjEtNS44OSA4LjIxLTEwLjk1VjMuNDJ6Ii8+JiN4YTs8L3N2Zz4=;fontFamily=Helvetica;fontSize=11;fontColor=default;" parent="y0zyJRoavZWraJmP3ed2-3" vertex="1">
          <mxGeometry x="36" width="32" height="40" as="geometry" />
        </mxCell>
        <mxCell id="y0zyJRoavZWraJmP3ed2-2" value="Service Account" style="text;html=1;align=center;verticalAlign=middle;resizable=0;points=[];autosize=1;strokeColor=none;fillColor=none;" parent="y0zyJRoavZWraJmP3ed2-3" vertex="1">
          <mxGeometry y="33.160000000000025" width="104" height="26" as="geometry" />
        </mxCell>
        <mxCell id="h5K1nMmh7eXsHglE7J47-2" style="edgeStyle=orthogonalEdgeStyle;rounded=0;orthogonalLoop=1;jettySize=auto;html=1;" parent="1" source="h5K1nMmh7eXsHglE7J47-1" target="y0zyJRoavZWraJmP3ed2-1" edge="1">
          <mxGeometry relative="1" as="geometry">
            <Array as="points">
              <mxPoint x="260" y="401" />
              <mxPoint x="260" y="401" />
            </Array>
          </mxGeometry>
        </mxCell>
        <mxCell id="h5K1nMmh7eXsHglE7J47-1" value="&lt;span style=&quot;color: rgb(0, 0, 0); font-size: 12px; font-weight: 400;&quot;&gt;Cloud Functions&lt;/span&gt;" style="sketch=0;html=1;verticalAlign=top;labelPosition=center;verticalLabelPosition=bottom;align=center;spacingTop=-6;fontSize=11;fontStyle=1;fontColor=#999999;shape=image;aspect=fixed;imageAspect=0;image=data:image/svg+xml,PHN2ZyB4bWxucz0iaHR0cDovL3d3dy53My5vcmcvMjAwMC9zdmciIHhtbG5zOnY9Imh0dHBzOi8vdmVjdGEuaW8vbmFubyIgd2lkdGg9IjIwIiBoZWlnaHQ9IjE5Ljk4OTk5OTc3MTExODE2NCIgdmlld0JveD0iMCAwIDIwIDE5Ljk4OTk5OTc3MTExODE2NCI+JiN4YTsJPHN0eWxlIHR5cGU9InRleHQvY3NzIj4mI3hhOwkuc3Qwe2ZpbGw6IzQyODVmNDt9JiN4YTsJLnN0MXtmaWxsOiM2NjlkZjY7fSYjeGE7CS5zdDJ7ZmlsbDojYWVjYmZhO30mI3hhOwk8L3N0eWxlPiYjeGE7CTxwYXRoIGNsYXNzPSJzdDEiIGQ9Ik0zIDMuOTlMMCA2LjQydjcuMTNsMyAyLjQ0eiIvPiYjeGE7CTxwYXRoIGNsYXNzPSJzdDAiIGQ9Ik0zIDMuOTlsLTMgNCAzLTJ6bS0zIDhsMyA0di0yeiIvPiYjeGE7CTxwYXRoIGNsYXNzPSJzdDIiIGQ9Ik0wIDE1Ljk5bDQgNCAyLTItNi02em0uMDEtOEw1Ljk5IDJsLTItMkwwIDMuOTl6Ii8+JiN4YTsJPHBhdGggY2xhc3M9InN0MSIgZD0iTTE3IDE2bDMtMi40MlY2LjQ0TDE3IDR6Ii8+JiN4YTsJPHBhdGggY2xhc3M9InN0MCIgZD0iTTE3IDE2bDMtNC0zIDJ6bTMtOGwtMy00djJ6Ii8+JiN4YTsJPGcgY2xhc3M9InN0MiI+JiN4YTsJCTxwYXRoIGQ9Ik0yMCA0bC00LTQtMiAyIDYgNnptLS4wMSA4bC01Ljk4IDUuOTkgMiAyTDIwIDE2eiIvPiYjeGE7CQk8Y2lyY2xlIGN4PSI2IiBjeT0iOS45OSIgcj0iMSIvPiYjeGE7CQk8Y2lyY2xlIGN4PSIxMCIgY3k9IjkuOTkiIHI9IjEiLz4mI3hhOwkJPGNpcmNsZSBjeD0iMTMuOTkiIGN5PSI5Ljk5IiByPSIxIi8+JiN4YTsJPC9nPiYjeGE7PC9zdmc+;fontFamily=Helvetica;" parent="1" vertex="1">
          <mxGeometry x="158" y="385" width="42" height="34" as="geometry" />
        </mxCell>
        <mxCell id="bCymNF4LrOhPekiqlcim-5" style="edgeStyle=orthogonalEdgeStyle;rounded=0;orthogonalLoop=1;jettySize=auto;html=1;entryX=0.456;entryY=0.994;entryDx=0;entryDy=0;entryPerimeter=0;" parent="1" source="h5K1nMmh7eXsHglE7J47-3" edge="1">
          <mxGeometry relative="1" as="geometry">
            <mxPoint x="479.48178364760065" y="405.6593406593406" as="sourcePoint" />
            <mxPoint x="594.72" y="383.16599999999994" as="targetPoint" />
            <Array as="points">
              <mxPoint x="595" y="401" />
            </Array>
          </mxGeometry>
        </mxCell>
        <mxCell id="h5K1nMmh7eXsHglE7J47-3" value="IAM Role" style="sketch=0;outlineConnect=0;fontColor=#232F3E;gradientColor=none;fillColor=#BF0816;strokeColor=none;dashed=0;verticalLabelPosition=bottom;verticalAlign=top;align=center;html=1;fontSize=12;fontStyle=0;aspect=fixed;pointerEvents=1;shape=mxgraph.aws4.role;" parent="1" vertex="1">
          <mxGeometry x="423" y="385" width="52" height="29.34" as="geometry" />
        </mxCell>
        <mxCell id="h5K1nMmh7eXsHglE7J47-4" style="edgeStyle=orthogonalEdgeStyle;rounded=0;orthogonalLoop=1;jettySize=auto;html=1;" parent="1" source="y0zyJRoavZWraJmP3ed2-1" target="h5K1nMmh7eXsHglE7J47-3" edge="1">
          <mxGeometry relative="1" as="geometry">
            <Array as="points">
              <mxPoint x="365" y="401" />
              <mxPoint x="365" y="401" />
            </Array>
          </mxGeometry>
        </mxCell>
        <mxCell id="t1V0RL60wSGjaN6FaPNo-1" value="" style="shape=image;verticalLabelPosition=bottom;labelBackgroundColor=default;verticalAlign=top;aspect=fixed;imageAspect=0;image=data:image/png,iVBORw0KGgoAAAANSUhEUgAAAQMAAADCCAMAAAB6zFdcAAAAzFBMVEX///9fQ+lAQLJeQelTMuhbPemMe+5jRuoqKq00NK/p6fXUz/ioqNhdQOlQLehRL+hXN+g5ObD5+P5VNehYOuiIdu7t6vxNKOfw7v2nmvLCuvba1fnSzPgnJ6y9tPVsVOu1td4vL67k4Pt2YOxzc8ODcO3R0eqekPHLxPeyp/NmS+p9aeyXiPBoTupsbMG5r/SsoPLHwPZwWOtWVrkfH6qbm9O5ud9QULigkvGSks+Tg+94YuxFRbT29P5HH+fn4/uGhsrHx+VjY74VFapDYfotAAAFyklEQVR4nO2da3vaOBBGJQwEyILxhZK00EIbQsml7bbbTdJNmr38//+0kmOwsSVbTuwKaeb90g9tkvF5nh5mNCIQgsFgMBgMBoPBYDAYDAbTVE583RXoz2z8UXcJ2nPsuh/e6y5Cc47bdDj68aC7DK1hDCgN219016EzEQPqjDu/665EX54YMArtD29016IrWwaUa+FEdzV6kjBgWnBhaiHNgNLgCKIW9hlQxwWohQwDpoVpF5oWcgwo7UDTgoABpWP6WnddvzJCBqxb+ApIC2IGvFuAowUZA6aF9qnu4n5R5Az4EAFDCwUMwGihkAEQLZQwYFoYWa+FUgasW7BdCwoMrNeCCgOuhckr3ZU2FzUGfIg4tXYTocrAZi2oM6DOz5nuaptJBQa0fay72maCDJ7DYN3k6+Titwa/uSzVGXSnk6ba5/NvfxjCoMOm6iZeJwdnPa9vCgM2VQ/rf5383vNaLXMYNNA+/+n1Wy2zGNQ8VZ9/W7Za5jGocaoenM29lpkMWPsc1qAFPxKBsQyYFt69VAuxCMxl8OKpeicCkxlEWnhut8A7gpYNDPhU/fZZP/t7loDBDLgWqo9Tiz0RGM+Aa2FVTQvnN8s8AbMZ8NXcrboWmAhEBExnwLsFVS3c5UVgCQNVLSz6AhHYwkCpW8h2BNYx4N1CoRZSo4G9DCgNA6kW/LtiAtYwYFq4FmtB2BEcAgO3dgaSbkHSERwAg0caOLUz4FpY72th8EnSERwAA0K+tMP6GTAthJ+Tn+HLO4KDYEAefkzVHqsSA66F7W6uqCM4DAaEvP/LVfkPUY1BpAX+Bf69ggi0MyDko4oWqjKgDuVfMJgrI9DKgJCNW6qF6gyOIgZKNjwEBuThalTydPYzYFq4LNYCBAZMC0dFWoDBgGkhkGsBCgOmBVf2kGAYRN3CEDoDpoULoRZAMZBoARgDpoX8EAGNAZuqL7NagMeAkFlGCxAZZIcImAyInx4igDKIhoitFsAySGkBMANCPo9D8AzIw5oPEbAZ8G5hNITOgGnh+id4BqxbQAZxkAEy4JkEDTKYm8FANFXXxMDrmYGAiKbqWhh4vb9Nehvp7FppY1+JQe9f095OvFHZ2FdgsLz/R/cjVY9fupqrwKBvyOvBNrvfPFq2mlNmYJgIWFbJXaNZycZejYF5IiDdYJpcQSxazakxMFIErE8cJ3eNfPlqToWBaSKIw3vl9M1kPlU/k4E3N00EcZ7mheHoMtHCdVushRIGvU8DfY/xomxnpo6bXEGMD9sqMVjeGCiCOMncmLqC6K9FQ0QBg35voe0JXp7U7Jy6gkherfJakDLw5ndmiiDO3vnBcLR63P7F7F1WCzIG5oogTuYMJX0zOasFMYPl/bm+6utJ7hwpbCdauN0bIkQM+v2FttJrS/4szQkudlp4XKXOFvIMvJ7ZIogjOk9Ma+H4YqeFHAPjRRBHfKbama53H+LwNgyFDJY3xosgjuxcORxvtv/Ev30aIvYY9L2FtprrjvRs3Qmy3UKKgekdwX4K9gtsiEi0wLqFhMH8zA4RxCncsXTcq5QWgpiBPSKIU7Jn2tcC/2Pw30JbsQ2lbNfGuoXdRz5F47VvkQjilO8bh+6l5R/5pLJz7YyurP7IJ7W9c+huyr+VsVHcvTvBkb2fBKd8/8CxVwsV7mB0At3FNpTK91AsDDJABjzIABnwIANkwIMMkAEPMkAGPMgAGfAgA2TAgwyQAQ8yQAY8yAAZ8CADZMAzQQZkU/4+JusZCG8mQ2PwdNcIOgN+12gMnsHuCiJkBkpasJ6BghYAMGBa6BRqAQQD4p8W/TIEGAyYFiZyLUBhUKQFOAzk3QIkBoSIuwVYDMRaAMaAkDd5LYBjQMjrbLcAkAHrFva1AJFBVgswGTAtfE20AJUB08JwDJ4BIdshAjIDctKNtACaQawF4AyYFsIxeAZMC+5Qdwn6c9LVXQEGg8FgMBgMBoPBYDAYTCr/Ayt3f9/A4PxrAAAAAElFTkSuQmCC;" parent="1" vertex="1">
          <mxGeometry x="115" y="232" width="56" height="41.94" as="geometry" />
        </mxCell>
        <mxCell id="t1V0RL60wSGjaN6FaPNo-17" style="edgeStyle=orthogonalEdgeStyle;rounded=0;orthogonalLoop=1;jettySize=auto;html=1;entryX=0.549;entryY=-0.008;entryDx=0;entryDy=0;entryPerimeter=0;" parent="1" source="t1V0RL60wSGjaN6FaPNo-23" edge="1">
          <mxGeometry relative="1" as="geometry">
            <mxPoint x="490.48178364760065" y="291.92" as="sourcePoint" />
            <mxPoint x="596.8800000000001" y="308.80800000000005" as="targetPoint" />
            <Array as="points">
              <mxPoint x="597" y="291.92" />
            </Array>
          </mxGeometry>
        </mxCell>
        <mxCell id="t1V0RL60wSGjaN6FaPNo-25" style="edgeStyle=orthogonalEdgeStyle;rounded=0;orthogonalLoop=1;jettySize=auto;html=1;entryX=0;entryY=0.5;entryDx=0;entryDy=0;exitX=0.971;exitY=0.676;exitDx=0;exitDy=0;exitPerimeter=0;" parent="1" source="t1V0RL60wSGjaN6FaPNo-9" target="t1V0RL60wSGjaN6FaPNo-21" edge="1">
          <mxGeometry relative="1" as="geometry">
            <mxPoint x="287" y="291.92" as="sourcePoint" />
            <Array as="points" />
          </mxGeometry>
        </mxCell>
        <mxCell id="t1V0RL60wSGjaN6FaPNo-9" value="&lt;span style=&quot;color: rgb(0, 0, 0); font-family: Helvetica; font-size: 12px; font-style: normal; font-variant-ligatures: normal; font-variant-caps: normal; font-weight: 400; letter-spacing: normal; orphans: 2; text-align: center; text-indent: 0px; text-transform: none; widows: 2; word-spacing: 0px; -webkit-text-stroke-width: 0px; background-color: rgb(251, 251, 251); text-decoration-thickness: initial; text-decoration-style: initial; text-decoration-color: initial; float: none; display: inline !important;&quot;&gt;Workload Identity&lt;br&gt;Federation&lt;/span&gt;" style="sketch=0;html=1;verticalAlign=top;labelPosition=center;verticalLabelPosition=bottom;align=center;spacingTop=-6;fontSize=11;fontStyle=1;fontColor=#999999;shape=image;aspect=fixed;imageAspect=0;image=data:image/svg+xml,PHN2ZyB4bWxucz0iaHR0cDovL3d3dy53My5vcmcvMjAwMC9zdmciIHhtbG5zOnY9Imh0dHBzOi8vdmVjdGEuaW8vbmFubyIgd2lkdGg9IjE3LjE4MDAwMDMwNTE3NTc4IiBoZWlnaHQ9IjIwIiB2aWV3Qm94PSIwIDAgMTcuMTgwMDAwMzA1MTc1NzggMjAiPiYjeGE7CTxzdHlsZSB0eXBlPSJ0ZXh0L2NzcyI+JiN4YTsJLnN0MHtmaWxsOiM0Mjg1ZjQ7fSYjeGE7CS5zdDF7ZmlsbDojNjY5ZGY2O30mI3hhOwk8L3N0eWxlPiYjeGE7CTxwYXRoIGNsYXNzPSJzdDAiIGQ9Ik05LjkgNC44NWE1LjIzIDUuMjMgMCAwIDEgMy43NSAzLjc1aDMuNTNWMy4yNEw5LjkgMHpNMy41MiA4LjYxYTUuMjIgNS4yMiAwIDAgMSAzLjc1LTMuNzVWMEwwIDMuMjR2NS4zN3pNNy4yOCAxNWE1LjIzIDUuMjMgMCAwIDEtMy43NS0zLjc1SC4yMkExMiAxMiAwIDAgMCA3LjI4IDIwem02LjM4LTMuNzVBNS4yMyA1LjIzIDAgMCAxIDkuOTEgMTV2NWExMiAxMiAwIDAgMCA3LjA1LTguNzV6Ii8+JiN4YTsJPGNpcmNsZSBjbGFzcz0ic3QxIiBjeD0iOC41OSIgY3k9IjkuOTIiIHI9IjIuNjMiLz4mI3hhOzwvc3ZnPg==;" parent="1" vertex="1">
          <mxGeometry x="257" y="270.35" width="30" height="35" as="geometry" />
        </mxCell>
        <mxCell id="t1V0RL60wSGjaN6FaPNo-20" value="" style="group" parent="1" vertex="1" connectable="0">
          <mxGeometry x="319" y="270.94" width="104" height="59.160000000000025" as="geometry" />
        </mxCell>
        <mxCell id="t1V0RL60wSGjaN6FaPNo-21" value="" style="editableCssRules=.*;html=1;shape=image;verticalLabelPosition=bottom;labelBackgroundColor=#ffffff;verticalAlign=top;aspect=fixed;imageAspect=0;image=data:image/svg+xml,PHN2ZyB4bWxucz0iaHR0cDovL3d3dy53My5vcmcvMjAwMC9zdmciIHhtbG5zOnY9Imh0dHBzOi8vdmVjdGEuaW8vbmFubyIgd2lkdGg9IjE2LjQyMDAwMDA3NjI5Mzk0NSIgaGVpZ2h0PSIyMC4wNDk5OTkyMzcwNjA1NDciIGZpbGwtcnVsZT0iZXZlbm9kZCIgdmlld0JveD0iMCAwIDE2LjQyMDAwMDA3NjI5Mzk0NSAyMC4wNDk5OTkyMzcwNjA1NDciPiYjeGE7CTxzdHlsZSB0eXBlPSJ0ZXh0L2NzcyI+JiN4YTsJLnN0MHtmaWxsOiM0Mjg1ZjQ7fSYjeGE7CS5zdDF7ZmlsbDojNjY5ZGY2O30mI3hhOwk8L3N0eWxlPiYjeGE7CTxwYXRoIGNsYXNzPSJzdDEiIGQ9Ik04LjIxIDBMMCAzLjQydjUuNjNjMCA1LjA2IDMuNSA5LjggOC4yMSAxMSA0LjcxLTEuMTUgOC4yMS01Ljg5IDguMjEtMTAuOTVWMy40MnptMCAzLjc5YTIuNjMgMi42MyAwIDAgMSAxLjAwNSA1LjA2QTIuNjMgMi42MyAwIDAgMSA2LjM1IDQuNTZhMi42MyAyLjYzIDAgMCAxIDEuODYtLjc3em00LjExIDExLjE1YTguNjQgOC42NCAwIDAgMS00LjExIDIuOTMgOC42NCA4LjY0IDAgMCAxLTQuMTEtMi45M3YtMi4yNWMwLTEuNjcgMi43NC0yLjUyIDQuMTEtMi41MnM0LjExLjg1IDQuMTEgMi41MnoiLz4mI3hhOwk8cGF0aCBjbGFzcz0ic3QwIiBkPSJNOC4yMSAwdjMuNzlhMi42MyAyLjYzIDAgMSAxIDAgNS4yNnYxLjEyYzEuMzcgMCA0LjExLjg1IDQuMTEgMi41MnYyLjI1YTguNjQgOC42NCAwIDAgMS00LjExIDIuOTNWMjBjNC43MS0xLjE1IDguMjEtNS44OSA4LjIxLTEwLjk1VjMuNDJ6Ii8+JiN4YTs8L3N2Zz4=;fontFamily=Helvetica;fontSize=11;fontColor=default;" parent="t1V0RL60wSGjaN6FaPNo-20" vertex="1">
          <mxGeometry x="37" y="3" width="32" height="40" as="geometry" />
        </mxCell>
        <mxCell id="t1V0RL60wSGjaN6FaPNo-22" value="Service Account" style="text;html=1;align=center;verticalAlign=middle;resizable=0;points=[];autosize=1;strokeColor=none;fillColor=none;" parent="t1V0RL60wSGjaN6FaPNo-20" vertex="1">
          <mxGeometry y="37.060000000000024" width="104" height="26" as="geometry" />
        </mxCell>
        <mxCell id="t1V0RL60wSGjaN6FaPNo-23" value="IAM Role" style="sketch=0;outlineConnect=0;fontColor=#232F3E;gradientColor=none;fillColor=#BF0816;strokeColor=none;dashed=0;verticalLabelPosition=bottom;verticalAlign=top;align=center;html=1;fontSize=12;fontStyle=0;aspect=fixed;pointerEvents=1;shape=mxgraph.aws4.role;" parent="1" vertex="1">
          <mxGeometry x="444" y="273.94" width="52" height="29.34" as="geometry" />
        </mxCell>
        <mxCell id="t1V0RL60wSGjaN6FaPNo-26" style="edgeStyle=orthogonalEdgeStyle;rounded=0;orthogonalLoop=1;jettySize=auto;html=1;" parent="1" source="t1V0RL60wSGjaN6FaPNo-21" target="t1V0RL60wSGjaN6FaPNo-23" edge="1">
          <mxGeometry relative="1" as="geometry">
            <Array as="points">
              <mxPoint x="445" y="292.92" />
              <mxPoint x="445" y="292.92" />
            </Array>
          </mxGeometry>
        </mxCell>
        <mxCell id="t1V0RL60wSGjaN6FaPNo-29" value="GCP&lt;br&gt;Resources" style="ellipse;shape=cloud;whiteSpace=wrap;html=1;fillColor=#ffe6cc;strokeColor=#d79b00;" parent="1" vertex="1">
          <mxGeometry x="534" y="304.18" width="120" height="80" as="geometry" />
        </mxCell>
        <mxCell id="t1V0RL60wSGjaN6FaPNo-30" value="&lt;font style=&quot;font-size: 10px;&quot;&gt;&lt;b&gt;&lt;i&gt;&lt;u&gt;PERMISSIONS&lt;/u&gt;&lt;/i&gt;&lt;/b&gt;&lt;br&gt;- iam&lt;br style=&quot;border-color: var(--border-color);&quot;&gt;- cloud storage&lt;br&gt;- cloud functions&lt;/font&gt;" style="text;html=1;align=center;verticalAlign=middle;resizable=0;points=[];autosize=1;strokeColor=none;fillColor=none;" parent="1" vertex="1">
          <mxGeometry x="501" y="227" width="91" height="70" as="geometry" />
        </mxCell>
        <mxCell id="t1V0RL60wSGjaN6FaPNo-31" value="&lt;font style=&quot;font-size: 10px;&quot;&gt;&lt;b&gt;&lt;i&gt;&lt;u&gt;PERMISSIONS&lt;/u&gt;&lt;/i&gt;&lt;/b&gt;&lt;br&gt;- secret&lt;br&gt;- cloud storage&lt;br&gt;&lt;/font&gt;" style="text;html=1;align=center;verticalAlign=middle;resizable=0;points=[];autosize=1;strokeColor=none;fillColor=none;" parent="1" vertex="1">
          <mxGeometry x="503" y="398" width="87" height="55" as="geometry" />
        </mxCell>
      </root>
    </mxGraphModel>
  </diagram>
  <diagram id="lm8PTMcjeLjLe_DLHEya" name="Page-7">
    <mxGraphModel dx="2074" dy="1188" grid="0" gridSize="10" guides="1" tooltips="1" connect="1" arrows="1" fold="1" page="1" pageScale="1" pageWidth="827" pageHeight="1169" math="0" shadow="0">
      <root>
        <mxCell id="0" />
        <mxCell id="1" parent="0" />
        <mxCell id="g66UuUptJcBTF6zi0Mrq-8" value="" style="rounded=0;whiteSpace=wrap;html=1;fillColor=#fff2cc;strokeColor=#d6b656;glass=0;shadow=1;" parent="1" vertex="1">
          <mxGeometry x="269" y="175" width="406" height="120" as="geometry" />
        </mxCell>
        <mxCell id="iL1m7PS3K_ceUeGtHmzh-1" value="" style="group" parent="1" vertex="1" connectable="0">
          <mxGeometry x="262" y="221" width="104" height="63.060000000000024" as="geometry" />
        </mxCell>
        <mxCell id="iL1m7PS3K_ceUeGtHmzh-2" value="" style="editableCssRules=.*;html=1;shape=image;verticalLabelPosition=bottom;labelBackgroundColor=#ffffff;verticalAlign=top;aspect=fixed;imageAspect=0;image=data:image/svg+xml,PHN2ZyB4bWxucz0iaHR0cDovL3d3dy53My5vcmcvMjAwMC9zdmciIHhtbG5zOnY9Imh0dHBzOi8vdmVjdGEuaW8vbmFubyIgd2lkdGg9IjE2LjQyMDAwMDA3NjI5Mzk0NSIgaGVpZ2h0PSIyMC4wNDk5OTkyMzcwNjA1NDciIGZpbGwtcnVsZT0iZXZlbm9kZCIgdmlld0JveD0iMCAwIDE2LjQyMDAwMDA3NjI5Mzk0NSAyMC4wNDk5OTkyMzcwNjA1NDciPiYjeGE7CTxzdHlsZSB0eXBlPSJ0ZXh0L2NzcyI+JiN4YTsJLnN0MHtmaWxsOiM0Mjg1ZjQ7fSYjeGE7CS5zdDF7ZmlsbDojNjY5ZGY2O30mI3hhOwk8L3N0eWxlPiYjeGE7CTxwYXRoIGNsYXNzPSJzdDEiIGQ9Ik04LjIxIDBMMCAzLjQydjUuNjNjMCA1LjA2IDMuNSA5LjggOC4yMSAxMSA0LjcxLTEuMTUgOC4yMS01Ljg5IDguMjEtMTAuOTVWMy40MnptMCAzLjc5YTIuNjMgMi42MyAwIDAgMSAxLjAwNSA1LjA2QTIuNjMgMi42MyAwIDAgMSA2LjM1IDQuNTZhMi42MyAyLjYzIDAgMCAxIDEuODYtLjc3em00LjExIDExLjE1YTguNjQgOC42NCAwIDAgMS00LjExIDIuOTMgOC42NCA4LjY0IDAgMCAxLTQuMTEtMi45M3YtMi4yNWMwLTEuNjcgMi43NC0yLjUyIDQuMTEtMi41MnM0LjExLjg1IDQuMTEgMi41MnoiLz4mI3hhOwk8cGF0aCBjbGFzcz0ic3QwIiBkPSJNOC4yMSAwdjMuNzlhMi42MyAyLjYzIDAgMSAxIDAgNS4yNnYxLjEyYzEuMzcgMCA0LjExLjg1IDQuMTEgMi41MnYyLjI1YTguNjQgOC42NCAwIDAgMS00LjExIDIuOTNWMjBjNC43MS0xLjE1IDguMjEtNS44OSA4LjIxLTEwLjk1VjMuNDJ6Ii8+JiN4YTs8L3N2Zz4=;fontFamily=Helvetica;fontSize=11;fontColor=default;" parent="iL1m7PS3K_ceUeGtHmzh-1" vertex="1">
          <mxGeometry x="37" y="3" width="32" height="40" as="geometry" />
        </mxCell>
        <mxCell id="iL1m7PS3K_ceUeGtHmzh-3" value="&lt;font style=&quot;font-size: 11px;&quot;&gt;Service Account&lt;/font&gt;" style="text;html=1;align=center;verticalAlign=middle;resizable=0;points=[];autosize=1;strokeColor=none;fillColor=none;" parent="iL1m7PS3K_ceUeGtHmzh-1" vertex="1">
          <mxGeometry x="4" y="37.060000000000024" width="97" height="26" as="geometry" />
        </mxCell>
        <mxCell id="iL1m7PS3K_ceUeGtHmzh-5" style="edgeStyle=orthogonalEdgeStyle;rounded=0;orthogonalLoop=1;jettySize=auto;html=1;" parent="1" target="_bAVC8dcEUcOyDpblko1-6" edge="1">
          <mxGeometry relative="1" as="geometry">
            <mxPoint x="432" y="244" as="sourcePoint" />
            <Array as="points">
              <mxPoint x="432" y="244" />
            </Array>
          </mxGeometry>
        </mxCell>
        <mxCell id="iL1m7PS3K_ceUeGtHmzh-4" value="&lt;font style=&quot;font-size: 11px;&quot;&gt;Private key&lt;/font&gt;" style="points=[[0,0.5,0],[0.24,0,0],[0.5,0.28,0],[0.995,0.475,0],[0.5,0.72,0],[0.24,1,0]];verticalLabelPosition=bottom;sketch=0;html=1;verticalAlign=top;aspect=fixed;align=center;pointerEvents=1;shape=mxgraph.cisco19.key;fillColor=#005073;strokeColor=none;" parent="1" vertex="1">
          <mxGeometry x="378" y="232" width="50" height="22.5" as="geometry" />
        </mxCell>
        <mxCell id="iL1m7PS3K_ceUeGtHmzh-6" value="&lt;font style=&quot;font-size: 10px;&quot;&gt;upload key as secret&lt;/font&gt;" style="text;html=1;align=center;verticalAlign=middle;resizable=0;points=[];autosize=1;strokeColor=none;fillColor=none;" parent="1" vertex="1">
          <mxGeometry x="464" y="221" width="110" height="26" as="geometry" />
        </mxCell>
        <mxCell id="g66UuUptJcBTF6zi0Mrq-1" value="" style="shape=image;html=1;verticalAlign=top;verticalLabelPosition=bottom;labelBackgroundColor=#ffffff;imageAspect=0;aspect=fixed;image=https://cdn0.iconfinder.com/data/icons/phosphor-thin-vol-3/256/number-circle-two-thin-128.png;fontFamily=Helvetica;fontSize=11;fontColor=default;" parent="1" vertex="1">
          <mxGeometry x="505.69" y="206.38" width="25.62" height="25.62" as="geometry" />
        </mxCell>
        <mxCell id="g66UuUptJcBTF6zi0Mrq-6" value="" style="group" parent="1" vertex="1" connectable="0">
          <mxGeometry x="609" y="213.75" width="59" height="75.25" as="geometry" />
        </mxCell>
        <mxCell id="_bAVC8dcEUcOyDpblko1-6" value="" style="shape=image;html=1;verticalAlign=top;verticalLabelPosition=bottom;labelBackgroundColor=#ffffff;imageAspect=0;aspect=fixed;image=https://cdn1.iconfinder.com/data/icons/picons-social/57/github_rounded-128.png" parent="g66UuUptJcBTF6zi0Mrq-6" vertex="1">
          <mxGeometry width="59" height="59" as="geometry" />
        </mxCell>
        <mxCell id="g66UuUptJcBTF6zi0Mrq-4" value="&lt;font style=&quot;font-size: 11px;&quot;&gt;GitHub&lt;/font&gt;" style="text;html=1;align=center;verticalAlign=middle;resizable=0;points=[];autosize=1;strokeColor=none;fillColor=none;" parent="g66UuUptJcBTF6zi0Mrq-6" vertex="1">
          <mxGeometry x="3.5" y="49.25" width="52" height="26" as="geometry" />
        </mxCell>
        <mxCell id="g66UuUptJcBTF6zi0Mrq-7" value="" style="group" parent="1" vertex="1" connectable="0">
          <mxGeometry x="270" y="183.12999999999997" width="156" height="40.87000000000003" as="geometry" />
        </mxCell>
        <mxCell id="iL1m7PS3K_ceUeGtHmzh-7" value="&lt;font style=&quot;font-size: 10px;&quot;&gt;create service account and key&lt;/font&gt;" style="text;html=1;align=center;verticalAlign=middle;resizable=0;points=[];autosize=1;strokeColor=none;fillColor=none;" parent="g66UuUptJcBTF6zi0Mrq-7" vertex="1">
          <mxGeometry y="14.870000000000033" width="156" height="26" as="geometry" />
        </mxCell>
        <mxCell id="DydioDms2d1AP0B7xJdl-1" value="" style="shape=image;html=1;verticalAlign=top;verticalLabelPosition=bottom;labelBackgroundColor=#FFCCE6;imageAspect=0;aspect=fixed;image=https://cdn0.iconfinder.com/data/icons/phosphor-thin-vol-3/256/number-circle-one-thin-128.png;fontFamily=Helvetica;fontSize=11;fontColor=default;" parent="g66UuUptJcBTF6zi0Mrq-7" vertex="1">
          <mxGeometry x="60.19" width="25.62" height="25.62" as="geometry" />
        </mxCell>
      </root>
    </mxGraphModel>
  </diagram>
  <diagram id="EWiRrsT2vmyxnFxVdXbe" name="Page-8">
    <mxGraphModel dx="731" dy="454" grid="0" gridSize="10" guides="1" tooltips="1" connect="1" arrows="1" fold="1" page="1" pageScale="1" pageWidth="827" pageHeight="1169" math="0" shadow="0">
      <root>
        <mxCell id="0" />
        <mxCell id="1" parent="0" />
        <mxCell id="b55XdactAnrHpBaileyR-18" style="edgeStyle=orthogonalEdgeStyle;rounded=0;orthogonalLoop=1;jettySize=auto;html=1;strokeWidth=2;" edge="1" parent="1" source="b55XdactAnrHpBaileyR-2">
          <mxGeometry relative="1" as="geometry">
            <mxPoint x="544" y="427" as="targetPoint" />
          </mxGeometry>
        </mxCell>
        <mxCell id="b55XdactAnrHpBaileyR-28" style="edgeStyle=orthogonalEdgeStyle;rounded=0;orthogonalLoop=1;jettySize=auto;html=1;entryX=1;entryY=0.5;entryDx=0;entryDy=0;strokeWidth=2;" edge="1" parent="1">
          <mxGeometry relative="1" as="geometry">
            <mxPoint x="463.9999999999998" y="309" as="sourcePoint" />
            <mxPoint x="231.99999999999977" y="309" as="targetPoint" />
          </mxGeometry>
        </mxCell>
        <mxCell id="b55XdactAnrHpBaileyR-2" value="" style="strokeColor=#dddddd;shadow=1;strokeWidth=1;rounded=1;absoluteArcSize=1;arcSize=2;" vertex="1" parent="1">
          <mxGeometry x="464" y="264" width="160" height="60" as="geometry" />
        </mxCell>
        <mxCell id="b55XdactAnrHpBaileyR-3" value="&lt;font color=&quot;#000000&quot;&gt;Xplorers Bot&lt;/font&gt;&lt;br&gt;Cloud Functions&lt;br&gt;Gen 1" style="editableCssRules=.*;html=1;fontColor=#999999;shape=image;verticalLabelPosition=middle;labelBackgroundColor=#ffffff;verticalAlign=middle;labelPosition=right;align=left;spacingLeft=20;part=1;points=[];imageAspect=0;image=data:image/svg+xml,PHN2ZyB4bWxucz0iaHR0cDovL3d3dy53My5vcmcvMjAwMC9zdmciIHhtbG5zOnY9Imh0dHBzOi8vdmVjdGEuaW8vbmFubyIgd2lkdGg9IjIwIiBoZWlnaHQ9IjE5Ljk4OTk5OTc3MTExODE2NCIgdmlld0JveD0iMCAwIDIwIDE5Ljk4OTk5OTc3MTExODE2NCI+JiN4YTsJPHN0eWxlIHR5cGU9InRleHQvY3NzIj4mI3hhOwkuc3Qwe2ZpbGw6IzQyODVmNDt9JiN4YTsJLnN0MXtmaWxsOiM2NjlkZjY7fSYjeGE7CS5zdDJ7ZmlsbDojYWVjYmZhO30mI3hhOwk8L3N0eWxlPiYjeGE7CTxwYXRoIGNsYXNzPSJzdDEiIGQ9Ik0zIDMuOTlMMCA2LjQydjcuMTNsMyAyLjQ0eiIvPiYjeGE7CTxwYXRoIGNsYXNzPSJzdDAiIGQ9Ik0zIDMuOTlsLTMgNCAzLTJ6bS0zIDhsMyA0di0yeiIvPiYjeGE7CTxwYXRoIGNsYXNzPSJzdDIiIGQ9Ik0wIDE1Ljk5bDQgNCAyLTItNi02em0uMDEtOEw1Ljk5IDJsLTItMkwwIDMuOTl6Ii8+JiN4YTsJPHBhdGggY2xhc3M9InN0MSIgZD0iTTE3IDE2bDMtMi40MlY2LjQ0TDE3IDR6Ii8+JiN4YTsJPHBhdGggY2xhc3M9InN0MCIgZD0iTTE3IDE2bDMtNC0zIDJ6bTMtOGwtMy00djJ6Ii8+JiN4YTsJPGcgY2xhc3M9InN0MiI+JiN4YTsJCTxwYXRoIGQ9Ik0yMCA0bC00LTQtMiAyIDYgNnptLS4wMSA4bC01Ljk4IDUuOTkgMiAyTDIwIDE2eiIvPiYjeGE7CQk8Y2lyY2xlIGN4PSI2IiBjeT0iOS45OSIgcj0iMSIvPiYjeGE7CQk8Y2lyY2xlIGN4PSIxMCIgY3k9IjkuOTkiIHI9IjEiLz4mI3hhOwkJPGNpcmNsZSBjeD0iMTMuOTkiIGN5PSI5Ljk5IiByPSIxIi8+JiN4YTsJPC9nPiYjeGE7PC9zdmc+;" vertex="1" parent="b55XdactAnrHpBaileyR-2">
          <mxGeometry width="30" height="24" relative="1" as="geometry">
            <mxPoint x="15" y="18" as="offset" />
          </mxGeometry>
        </mxCell>
        <mxCell id="b55XdactAnrHpBaileyR-4" style="edgeStyle=orthogonalEdgeStyle;rounded=0;orthogonalLoop=1;jettySize=auto;html=1;entryX=0;entryY=0.5;entryDx=0;entryDy=0;strokeWidth=2;" edge="1" parent="1" source="b55XdactAnrHpBaileyR-5" target="b55XdactAnrHpBaileyR-2">
          <mxGeometry relative="1" as="geometry" />
        </mxCell>
        <mxCell id="b55XdactAnrHpBaileyR-5" value="" style="shape=image;html=1;verticalAlign=top;verticalLabelPosition=bottom;labelBackgroundColor=#ffffff;imageAspect=0;aspect=fixed;image=https://cdn2.iconfinder.com/data/icons/social-media-2285/512/1_Slack_colored_svg-128.png" vertex="1" parent="1">
          <mxGeometry x="164" y="260" width="68" height="68" as="geometry" />
        </mxCell>
        <mxCell id="b55XdactAnrHpBaileyR-6" value="/POST events" style="text;html=1;align=center;verticalAlign=middle;resizable=0;points=[];autosize=1;strokeColor=none;fillColor=none;fontSize=11;fontFamily=Helvetica;fontColor=default;" vertex="1" parent="1">
          <mxGeometry x="324" y="254" width="90" height="30" as="geometry" />
        </mxCell>
        <mxCell id="b55XdactAnrHpBaileyR-7" value="" style="shape=image;html=1;verticalAlign=top;verticalLabelPosition=bottom;labelBackgroundColor=#ffffff;imageAspect=0;aspect=fixed;image=https://cdn0.iconfinder.com/data/icons/phosphor-fill-vol-3/256/number-circle-one-fill-128.png;fontFamily=Helvetica;fontSize=11;fontColor=default;" vertex="1" parent="1">
          <mxGeometry x="294" y="254" width="30" height="30" as="geometry" />
        </mxCell>
        <mxCell id="b55XdactAnrHpBaileyR-8" value="" style="shape=image;html=1;verticalAlign=top;verticalLabelPosition=bottom;labelBackgroundColor=#ffffff;imageAspect=0;aspect=fixed;image=https://cdn0.iconfinder.com/data/icons/phosphor-fill-vol-3/256/number-circle-two-fill-128.png;fontFamily=Helvetica;fontSize=11;fontColor=default;" vertex="1" parent="1">
          <mxGeometry x="622" y="335" width="30" height="30" as="geometry" />
        </mxCell>
        <mxCell id="b55XdactAnrHpBaileyR-9" value="Forward OpenAI&#39;s response&lt;br&gt;to user" style="text;html=1;align=center;verticalAlign=middle;resizable=0;points=[];autosize=1;strokeColor=none;fillColor=none;fontSize=11;fontFamily=Helvetica;fontColor=default;" vertex="1" parent="1">
          <mxGeometry x="199" y="555" width="155" height="38" as="geometry" />
        </mxCell>
        <mxCell id="b55XdactAnrHpBaileyR-10" value="&lt;b&gt;&lt;i&gt;Event Subscription&lt;br&gt;&lt;/i&gt;&lt;/b&gt;- message.channels" style="text;html=1;align=center;verticalAlign=middle;resizable=0;points=[];autosize=1;strokeColor=none;fillColor=none;fontSize=11;fontFamily=Helvetica;fontColor=default;" vertex="1" parent="1">
          <mxGeometry x="139" y="210" width="118" height="38" as="geometry" />
        </mxCell>
        <mxCell id="b55XdactAnrHpBaileyR-11" value="Cloud&#xa;Tasks" style="sketch=0;html=1;verticalAlign=top;labelPosition=center;verticalLabelPosition=bottom;align=center;spacingTop=-6;fontSize=11;fontStyle=1;fontColor=#999999;shape=image;aspect=fixed;imageAspect=0;image=data:image/svg+xml,PHN2ZyB4bWxucz0iaHR0cDovL3d3dy53My5vcmcvMjAwMC9zdmciIHhtbG5zOnY9Imh0dHBzOi8vdmVjdGEuaW8vbmFubyIgd2lkdGg9IjM3Ni4zNDk5ODYzODk2NDkzNiIgaGVpZ2h0PSIzMDcuNjg0MDE3OTkzMzY5MjUiIHZpZXdCb3g9IjAgMCA5OS41NzU5OTYzOTg5MjU3OCA4MS40MDgwMDQ3NjA3NDIxOSI+JiN4YTs8c3R5bGUgdHlwZT0idGV4dC9jc3MiPiYjeGE7CS5zdDB7ZmlsbDojNjY5ZGY2O30mI3hhOwkuc3Qxe2ZpbGw6IzQyODVmNDt9JiN4YTs8L3N0eWxlPiYjeGE7CTxwYXRoIGNsYXNzPSJzdDAiIGQ9Ik0wIDB2NDAuODc1aDEwVjB6bTIyLjM5NCAwdjQwLjg3NWgxMFYwem0yMi4zOTQgMHY0MC44NzVoMTBWMHptMjIuMzk0IDB2NDAuODc1aDEwVjB6bTIyLjM5NCAwdjQwLjg3NWgxMFYweiIvPiYjeGE7CTxwYXRoIGNsYXNzPSJzdDEiIGQ9Ik04OS41NzYgNDAuODc1djQwLjUzM2gxMFY0MC44NzV6bS0yMi4zOTQgMHY0MC41MzNoMTBWNDAuODc1em0tMjIuMzk0IDB2NDAuNTMzaDEwVjQwLjg3NXptLTIyLjM5NCAwdjQwLjUzM2gxMFY0MC44NzV6TTAgNDAuODc1djQwLjUzM2gxMFY0MC44NzV6Ii8+JiN4YTs8L3N2Zz4=;" vertex="1" parent="1">
          <mxGeometry x="464" y="427.69" width="65" height="52.62" as="geometry" />
        </mxCell>
        <mxCell id="b55XdactAnrHpBaileyR-13" value="If AI Slack channel &amp;amp;&amp;amp; Message&lt;br&gt;startsWith &quot;hey openai&quot;" style="text;html=1;align=center;verticalAlign=middle;resizable=0;points=[];autosize=1;strokeColor=none;fillColor=none;" vertex="1" parent="1">
          <mxGeometry x="547" y="360" width="188" height="41" as="geometry" />
        </mxCell>
        <mxCell id="b55XdactAnrHpBaileyR-19" style="edgeStyle=orthogonalEdgeStyle;rounded=0;orthogonalLoop=1;jettySize=auto;html=1;exitX=0.12;exitY=0.968;exitDx=0;exitDy=0;exitPerimeter=0;strokeWidth=2;" edge="1" parent="1">
          <mxGeometry relative="1" as="geometry">
            <mxPoint x="542.8000000000002" y="474.592" as="sourcePoint" />
            <mxPoint x="542" y="565" as="targetPoint" />
            <Array as="points">
              <mxPoint x="543" y="520" />
              <mxPoint x="542" y="520" />
            </Array>
          </mxGeometry>
        </mxCell>
        <mxCell id="b55XdactAnrHpBaileyR-14" value="" style="strokeColor=#dddddd;shadow=1;strokeWidth=1;rounded=1;absoluteArcSize=1;arcSize=2;" vertex="1" parent="1">
          <mxGeometry x="534" y="432" width="90" height="44" as="geometry" />
        </mxCell>
        <mxCell id="b55XdactAnrHpBaileyR-15" value="Task&#xa;Queues" style="sketch=0;dashed=0;connectable=0;html=1;fillColor=#757575;strokeColor=none;shape=mxgraph.gcp2.task_queues;part=1;labelPosition=right;verticalLabelPosition=middle;align=left;verticalAlign=middle;spacingLeft=5;fontSize=12;" vertex="1" parent="b55XdactAnrHpBaileyR-14">
          <mxGeometry y="0.5" width="32" height="32" relative="1" as="geometry">
            <mxPoint x="5" y="-16" as="offset" />
          </mxGeometry>
        </mxCell>
        <mxCell id="b55XdactAnrHpBaileyR-21" style="edgeStyle=orthogonalEdgeStyle;rounded=0;orthogonalLoop=1;jettySize=auto;html=1;entryX=0.5;entryY=0;entryDx=0;entryDy=0;strokeWidth=2;" edge="1" parent="1" source="b55XdactAnrHpBaileyR-16" target="b55XdactAnrHpBaileyR-20">
          <mxGeometry relative="1" as="geometry" />
        </mxCell>
        <mxCell id="b55XdactAnrHpBaileyR-23" style="edgeStyle=orthogonalEdgeStyle;rounded=0;orthogonalLoop=1;jettySize=auto;html=1;entryX=0.5;entryY=1;entryDx=0;entryDy=0;strokeWidth=2;" edge="1" parent="1" source="b55XdactAnrHpBaileyR-16" target="b55XdactAnrHpBaileyR-5">
          <mxGeometry relative="1" as="geometry" />
        </mxCell>
        <mxCell id="b55XdactAnrHpBaileyR-16" value="" style="strokeColor=#dddddd;shadow=1;strokeWidth=1;rounded=1;absoluteArcSize=1;arcSize=2;" vertex="1" parent="1">
          <mxGeometry x="464" y="566" width="160" height="60" as="geometry" />
        </mxCell>
        <mxCell id="b55XdactAnrHpBaileyR-17" value="&lt;font color=&quot;#000000&quot;&gt;OpenAI Function&lt;/font&gt;&lt;br&gt;Cloud Functions&lt;br&gt;Gen 1" style="editableCssRules=.*;html=1;fontColor=#999999;shape=image;verticalLabelPosition=middle;labelBackgroundColor=#ffffff;verticalAlign=middle;labelPosition=right;align=left;spacingLeft=20;part=1;points=[];imageAspect=0;image=data:image/svg+xml,PHN2ZyB4bWxucz0iaHR0cDovL3d3dy53My5vcmcvMjAwMC9zdmciIHhtbG5zOnY9Imh0dHBzOi8vdmVjdGEuaW8vbmFubyIgd2lkdGg9IjIwIiBoZWlnaHQ9IjE5Ljk4OTk5OTc3MTExODE2NCIgdmlld0JveD0iMCAwIDIwIDE5Ljk4OTk5OTc3MTExODE2NCI+JiN4YTsJPHN0eWxlIHR5cGU9InRleHQvY3NzIj4mI3hhOwkuc3Qwe2ZpbGw6IzQyODVmNDt9JiN4YTsJLnN0MXtmaWxsOiM2NjlkZjY7fSYjeGE7CS5zdDJ7ZmlsbDojYWVjYmZhO30mI3hhOwk8L3N0eWxlPiYjeGE7CTxwYXRoIGNsYXNzPSJzdDEiIGQ9Ik0zIDMuOTlMMCA2LjQydjcuMTNsMyAyLjQ0eiIvPiYjeGE7CTxwYXRoIGNsYXNzPSJzdDAiIGQ9Ik0zIDMuOTlsLTMgNCAzLTJ6bS0zIDhsMyA0di0yeiIvPiYjeGE7CTxwYXRoIGNsYXNzPSJzdDIiIGQ9Ik0wIDE1Ljk5bDQgNCAyLTItNi02em0uMDEtOEw1Ljk5IDJsLTItMkwwIDMuOTl6Ii8+JiN4YTsJPHBhdGggY2xhc3M9InN0MSIgZD0iTTE3IDE2bDMtMi40MlY2LjQ0TDE3IDR6Ii8+JiN4YTsJPHBhdGggY2xhc3M9InN0MCIgZD0iTTE3IDE2bDMtNC0zIDJ6bTMtOGwtMy00djJ6Ii8+JiN4YTsJPGcgY2xhc3M9InN0MiI+JiN4YTsJCTxwYXRoIGQ9Ik0yMCA0bC00LTQtMiAyIDYgNnptLS4wMSA4bC01Ljk4IDUuOTkgMiAyTDIwIDE2eiIvPiYjeGE7CQk8Y2lyY2xlIGN4PSI2IiBjeT0iOS45OSIgcj0iMSIvPiYjeGE7CQk8Y2lyY2xlIGN4PSIxMCIgY3k9IjkuOTkiIHI9IjEiLz4mI3hhOwkJPGNpcmNsZSBjeD0iMTMuOTkiIGN5PSI5Ljk5IiByPSIxIi8+JiN4YTsJPC9nPiYjeGE7PC9zdmc+;" vertex="1" parent="b55XdactAnrHpBaileyR-16">
          <mxGeometry width="30" height="24" relative="1" as="geometry">
            <mxPoint x="15" y="18" as="offset" />
          </mxGeometry>
        </mxCell>
        <mxCell id="b55XdactAnrHpBaileyR-20" value="" style="shape=image;verticalLabelPosition=bottom;labelBackgroundColor=default;verticalAlign=top;aspect=fixed;imageAspect=0;image=data:image/jpeg,/9j/4AAQSkZJRgABAQAAAQABAAD/2wCEAAoHCA8PDxEPDw8PDw8PDxAQDw8PDxEPDw8PGRQZGRgUGBgcIS4lHB4rIRgYJjgmLD0xNjo1GiVIQDszRzA0NTEBDAwMDw8QGBIRGDEhJCE0MTQ7MTE0NDQ0NDExMTExNDE0MTQ1NDE0NDQ0MTQ0NDE0NDE0NDQxMTQ0MTQ0NDQxMf/AABEIAKgBLAMBIgACEQEDEQH/xAAbAAADAQADAQAAAAAAAAAAAAABAgMABAUGB//EAD4QAAMAAQIEAgcECAMJAAAAAAABAgMEEQUSITEGURMiQWFxgZEUMqGxByNCUnLB4fAVotEWFzVEYnOCkrT/xAAaAQADAQEBAQAAAAAAAAAAAAAAAQIDBAUG/8QALxEBAQACAQMCAwcDBQAAAAAAAAECEQMSITFBUQRx8AUigZGhsdETQmEUMlJTwf/aAAwDAQACEQMRAD8A97ubcBjremYG5gADbm3F3DuItDuNuJubcCPuHcnubcApubcXc24EzYGzbi7gQsRhAyklYrGYrKiaRiNFGIyklaEaKMVlxKLQlIs0TpDJCkJSLUhKRSEKROkXpE2hhx6QlIvSJWhpQpErRyaRG0UTjUiNI5NIlaFQ4tIjaORaI5ERTcW0LjX5lMiBC/Mzqn1gxjGFd+2MYwDYmAMIAYJgMAGMBVjGMBMAIGBMwMzAWkGBmZmOIpGKx2Kyk0jAxmBlpSYrHYrGmp0idIrROkUlNolSLMlRSalROkVpE6RRI0iNovROgDjslRekRtATj0iFo5NojSIpuLaBC/MpaFhfmRVPqhgGOd27EIpgPZjGMLRsYxg0GMYwaDACAegAGYwyBmMxQRQYGZgLTQFYWKNFZgYWIyklYrGYrKSWhKGomyk0tE6KUSoqJToSilEqKJGiVFaJsCSpEbReiVgEbRG0XolaIpuPaBjnp8x7Rsa6fMzpvpYxjGDr2xjBBWwMEwHtgGMB7YwQAbGOr8Qcc0/DtO8+op7b8sROzvLf7sr837DwuHjXiPin6zRYY0enbfLdTjfNP8eRN18ZSQrlJ2TlnJdPpgp82zca8R8L/Wa3DGs06fr2px+rP8eNJz8aTR6bR+OOF5cU5K1MYapdcWXdZIr2ppb/AFCZS+e3zKckvbw9EZnG0XENPqJdafPizyntTxXN8r8nt2fxLs0LYMVjMVjSDFYWBlIpWBmbEbKibWYrC2dXx7iL0unrJKl23MQq7On/AKJN/IqRnllMZbfR2FCs834f49l1KyRk29Jj2acpTzY37t/Y1+KO3eqr+1/Q1nHlZt5XL9sfDcedwymW5/ify5NEqJrU9er6fFdytBcbj5dHwvxvD8VMrx77a89vKTEopROgjpSonRShKGEqJUWolQghROkVoSiTRpAhfmNRo/mRTfSQmCcrolAxjArbGMYFbYxjDPbHSeI/E+k4bCrUW3dreMGNJ5bXnt2U+97fM7PXaqNPhy57+5hx3krbvywnTS9/Q+beBeC/4rnzcX4hKzc2VxhxWt8bpJbvlfeJTUpduj37EZW9pPNLLK9pHC0er/2j4xi9LjcaXT4qv0Dvn3xy1vu9l1qnCfu6b9D33iPxXouFypy1zZeVcmmxJO+Xst/ZE/Hy6JnmPDSS8UcRSSSWnvZLokubAVy4dE/EGuza5YfR6bS6bJFZ2vRxbnGk9n0b69F169iMbZO3m3ynG2T/ADa63l414g6t/YOHV2XXbJPw6Vl7+6eh6DSfo64TjlTeK89pbusmfJNP38sOUkdXxbx/WfJGm4fUaeMtOf8AENYnGJJLq4TXTbp1r6LuLxDwHrYc63R8Ry5delzXeSuX0z7+pSb2Xs5a3T80hzV8Tq+vQu3pOpDj/gnJw9PX8Iy5YvCnd4XXNXo11py/2ktt3Fb7rf4HrvCXH54lpJz7Kcsv0eaVulOVJNud/wBlppr47ew83wjx9eHItJxnBenzS1LzqGpfdc1x5Pb707p79kjj/owqZ1fE4wtPTrJDxtPeeVXkUNfGfyHjZMp0+voUs3931fRGBjMRnSdBisTLqMcfeuI37c1TO/1NOSaW8ubT7OWqT+aDc3rabLreu3v6CxWFistAM8V421XNljCn0xzzV/HXZfJL/MezdJJtvZLq35I+Ya/UPPmyZX+3bpb91P7K+S2Rrxzu4fjeTWEx9/r+B4PqPQ6rHT6LJ+pr4X2/zch7XmPn9z08n5ruj2uh1PpcOPL7bS5vdfa19Uzow7bj5j7Q493Hk9+319ejktnMi90m+77/ADZwHRyNNfeff6vw6/z/ADDknbfsv7I5f6fxMx9M+34+Z+vb8VmJQzFoxfVp0TopRKgCdCUUZOgCVE6K0SpiNKg410BQcfYim+kmDsbY42kyAwQAvbACYFSgYIAXt1PirT1l4drMcJuq02XlS7tqW+VfHbY6H9FOqi+FTjl+tgzZZte1c1c8v4NV+DPanxfU6nPwnjWrXC8dXijas2nUuoeJzNUtl2marpXs+G+8ZXpsyTbqyu84bqMek8T62tTS0858VLDWX1Yt08Tnan02fLXXzW3c5WTgum13iLWLUx6ScOm02SYdNRVcmNesl3Xu7ee5zuHeIOE8dxLTajHE5n/y+d7Wq26vFkW2779tn7jr58N67g2ovV8PX+IYKxrHk02attTOKdmpil0rbbpsu3TlZOvbvNl7es3t7TW8K02ow/Zs2DHeBLacbhTMLbZcm33GvNbHzzg88T0ep12Lhz+06XQ51H2HPk3pxe73x0+zWz6fg2dz/vCxZ5iNBpdRqdZe6+zOeRYmns6uluuXr3Xzcifo/ed6riz1ShZ/tOB5Vj+4r2ybqfci7ZlZr8ztmVmnM0mu4dx7FeDNgpZcPTLhyy5z6et2m5v4rbp817DzPh6b4JxitBkavT65R6LLSSpveljbfnzOpa83ucjwH/xri/8A3M//ANDD+kRquJ8Jxw/1qyTTS6tKs0KH9Zr6Cv8AtmfrL/7pFu5v1fQmRz5OSKvbfkm6289k2WonklUnLW6aaa80zp+Su3q63gXhueI4L1GXUWsry1CUqaidtulJ9ez6JNbJicQ4dPDdZhxYsl3GeVvGRzzS3Tnf1Ul8Ht7GcbTzrtBkp6St4vvL2uX5bz5rzX9BtHo8+TM9VqrdZO6TfXfbo9uyS9iX4HlcfFyTPH7tll739+73ebnmuTLLnxy4rLrCa33n3ZrW503V36a37u3YrCxWey+cdT4k1XotLk2frZP1c/P73+VM+f7HpfF+o58sYk+mKeav43/RL6nnlDfZN/DqdPHjrH5vF+L5Orls9u38ptHstFovQaXEl9573k93M90vx2PNaDS8+aJveJdrnq+kqF1fV+5HttTnxVLXpMe7229ae79i6jtsyjK8E5vh+T39PnO/6+Pxrr3Q2O+Wk/Lt8PYR5jNm+tvAxtxsyx8x2rEoXBk5pT9vt/v6Bo5bNdn2vHyTkwxzn903+ZKJ0PQlCWSidDUydDMlEqKUSoAnQcfYFBx9iab6bsAYxwFMi7GCYFzIpgmBcyKYIAVMgPmeszrhnij02baNPrscpZH0mFcTO7fuuFv5J7n046LxV4bwcU0/osnqZI3rBmS3rHT79PbL2W69y8kTlLZ29Dvfw63xL4C0Wv5skL7LqX19Lin1LrzuOz+K2fxOp0XhTjGePsvEeItaOW55cFc+bUTttyu3KfL/ABb/AA7HD0+fxJwmVgenXEMEdMdTNahqPYpctWl7qXT2HVeI/GPGaUY82J8Mx520r9Flx5KlNKnzVvWy3TfKkyLcPNl+v0FuPs9hruOcJ4DienwTDyrvgwPmy1W3fLb7f+XXyRL9Hq1GWtdrs+B4Frs+LJiTTW6Svqt+rXrLr7RfB/hPheKJ1KzYuIZn63pqqaxxW+/qxu9mn7a67+RyfGHjbT6HFcYckZ9ZScxEUrnE/wB+2ui2/d7vp7Opc7fey7Seg3fLxHDPEmLhnE+K5ri8tZM2ojFMtJVXpm/Wp9l7+vwO/wDB3B9VqtZXGeIpzVb/AGbE05aTXKmpf3YUvaU+r339753gDwtOm061GrwzWrzV6WXlhVkwRt6q9brNPdt+3qk+x7Fhx4XUuXz0mAxGMxGdA6gYrCxGVEWsxKpJNt7JJtvySGZ1XiLU+j01pfeyNQvg/vfgn9S8ZuyM885hjcr6PFa3O8uW8j/bt119i9i+S2RKKcvdB2Bsd+teHz1tu7XNxvmnm2fdzvt05kk2t/mvqLkndHqdBoZnSxiud+aeek+6quv1Xb5HS8Q0FYa/eh9q/k/ePj5ZlvGr5vhMuLGZ+Z+y2ny88TXta6/xLo/xGdHB0GTbmj38y/J/y+pymynlZ4aysc7Q5Orn2vqvl/f4HLo6jHk5aVeX5e07Zs5+XHV29/7L5OriuF/tv6Xv++y0SoemSpkPTLTJ0PQlMNGnRKilMnTAEoOPsJTDjfQDfUTBAea55kAAmBcyAAQAuZAAIAXMmMYDBXUxw+JcPwavFWHUYpy467zS7P8AelrrL966nLYGM+p4DVfos0FW6x59Rilvfk3jIl7k2t/rudrwPwRw/Q0skRWfNPWcmelbh+cpJJP37b+89OxWKYYy7kLcKxWFis0T1FYjGYjKT1AxWxmIxjYM4mu0caieXIm0nzJp7NP+2cpsVsuXXgrJZqx0r8O6b/r/APf+hlwDTS09rrZ77VW8v49Dt2ybZp15e7L+hxf8J+QNks0zUuaXNNLZpj0xGwjW93BjheGW2pe7837AvRYvL8/9TlNitmnXl7sP9Lwf9c/KOL9ixfulWNTJ0wtt81fHw8fHvoxk37FpkqY1MSmNqWmTphpiUxgtMlTHpk6YAtMbG+nzJ0w430DQfVQA3AeW4uoQGMCpkwDABcyYAQAvbAZjMFdRGZhYrGfUDEYzFZRdRWKwsDGWyMRjsRlDZWIxmIxmViNjMVlgtMnTHpkmyoZaYrYaZOmVDFsm2FsnTLDUyVMNMnTGGpk6YaYlMoBTJ0w0ydMYLTEpjUydMegFMON9BKYcb6BYNvqm5txdzbnmPNmRtzbg3NuLS9sYARLlAAQAqVgMIrBe2YrCwMBsrFYzFYxsGIxmBjGyMRlGTY4NkYlFGTotW06J0UonRcPZKJ0xqZOmXD2SmTphpiUy4YUxGzUydMpW2piUzUydMobGmTpmbEbGNhTFpgpitjGwpk6YaZOmMgpjY30+ZOmNjfQA+pqg7mMebp5Mrbh3AYlpKO5twGEvYmMYKrYCmMJewYGYwz2DFZjDLZWBmMB7KxGYxUMlE6MYqHtKidMxjSHtKmRpmMaRSVMnTMYo4nTJ0wGHFEpitmMUCUxGzGGE6YrZjFBNsnTCYAnTDjfQxhU3/9k=;" vertex="1" parent="1">
          <mxGeometry x="480.5" y="716" width="127" height="71.12" as="geometry" />
        </mxCell>
        <mxCell id="b55XdactAnrHpBaileyR-22" value="Ask OPENAI" style="text;html=1;align=center;verticalAlign=middle;resizable=0;points=[];autosize=1;strokeColor=none;fillColor=none;" vertex="1" parent="1">
          <mxGeometry x="547" y="664" width="87" height="26" as="geometry" />
        </mxCell>
        <mxCell id="b55XdactAnrHpBaileyR-24" value="" style="shape=image;html=1;verticalAlign=top;verticalLabelPosition=bottom;labelBackgroundColor=#ffffff;imageAspect=0;aspect=fixed;image=https://cdn0.iconfinder.com/data/icons/phosphor-fill-vol-3/256/number-circle-three-fill-128.png" vertex="1" parent="1">
          <mxGeometry x="310" y="335" width="30" height="30" as="geometry" />
        </mxCell>
        <mxCell id="b55XdactAnrHpBaileyR-25" value="" style="shape=image;html=1;verticalAlign=top;verticalLabelPosition=bottom;labelBackgroundColor=#ffffff;imageAspect=0;aspect=fixed;image=https://cdn0.iconfinder.com/data/icons/phosphor-fill-vol-3/256/number-circle-four-fill-128.png" vertex="1" parent="1">
          <mxGeometry x="624" y="489" width="28" height="28" as="geometry" />
        </mxCell>
        <mxCell id="b55XdactAnrHpBaileyR-26" value="&lt;span style=&quot;color: rgb(0, 0, 0); font-family: Helvetica; font-size: 11px; font-style: normal; font-variant-ligatures: normal; font-variant-caps: normal; font-weight: 400; letter-spacing: normal; orphans: 2; text-indent: 0px; text-transform: none; widows: 2; word-spacing: 0px; -webkit-text-stroke-width: 0px; background-color: rgb(251, 251, 251); text-decoration-thickness: initial; text-decoration-style: initial; text-decoration-color: initial; float: none; display: inline !important;&quot;&gt;Forward slack event to OpenAI function&lt;/span&gt;" style="text;whiteSpace=wrap;html=1;align=center;" vertex="1" parent="1">
          <mxGeometry x="542" y="513" width="219" height="36" as="geometry" />
        </mxCell>
        <mxCell id="b55XdactAnrHpBaileyR-27" value="" style="shape=image;html=1;verticalAlign=top;verticalLabelPosition=bottom;labelBackgroundColor=#ffffff;imageAspect=0;aspect=fixed;image=https://cdn0.iconfinder.com/data/icons/phosphor-fill-vol-3/256/number-circle-five-fill-128.png" vertex="1" parent="1">
          <mxGeometry x="573" y="636" width="31" height="31" as="geometry" />
        </mxCell>
        <mxCell id="b55XdactAnrHpBaileyR-29" value="respond with 200 OK immediately" style="text;html=1;align=center;verticalAlign=middle;resizable=0;points=[];autosize=1;strokeColor=none;fillColor=none;" vertex="1" parent="1">
          <mxGeometry x="239" y="314" width="197" height="26" as="geometry" />
        </mxCell>
        <mxCell id="b55XdactAnrHpBaileyR-30" value="" style="shape=image;html=1;verticalAlign=top;verticalLabelPosition=bottom;labelBackgroundColor=#ffffff;imageAspect=0;aspect=fixed;image=https://cdn0.iconfinder.com/data/icons/phosphor-fill-vol-3/256/number-circle-six-fill-128.png" vertex="1" parent="1">
          <mxGeometry x="257" y="529" width="31" height="31" as="geometry" />
        </mxCell>
      </root>
    </mxGraphModel>
  </diagram>
</mxfile>
